<?xml version="1.0" encoding="utf-8"?>
<!-- Generator: Adobe Illustrator 28.3.0, SVG Export Plug-In . SVG Version: 6.00 Build 0)  -->
<svg version="1.1" id="Layer_1" xmlns="http://www.w3.org/2000/svg" xmlns:xlink="http://www.w3.org/1999/xlink" x="0px" y="0px"
	 viewBox="0 0 576 576" style="enable-background:new 0 0 576 576;" xml:space="preserve">
<style type="text/css">
	.st0{fill:#FFFFFF;stroke:#FFFFFF;stroke-width:1.022;stroke-miterlimit:10;}
</style>
<g>
	<path class="st0" d="M576,377.02c-1.28,4.52-2.82,8.98-3.73,13.57c-0.56,2.83-0.07,5.86-0.21,8.8c-0.06,1.28-0.23,2.73-0.9,3.74
		c-0.61,0.92-1.94,1.79-3,1.85c-0.66,0.04-1.88-1.39-2.03-2.3c-0.58-3.64-0.98-7.32-1.2-11.01c-0.23-3.94-1.58-5.9-4.49-5.93
		c-2.85-0.02-4.38,1.99-4.69,5.9c-0.28,3.46-0.54,6.94-1.17,10.35c-0.2,1.08-1.55,1.95-2.38,2.92c-1.06-1.04-2.66-1.91-3.05-3.15
		c-0.63-2.02-0.77-4.31-0.59-6.45c0.62-7.12-0.99-13.79-3.37-20.41c-0.87-2.42-1.34-5.05-1.55-7.62c-0.5-6.29,3.82-9.76,9.98-8.16
		c1.14,0.3,2.18,1.19,3.31,1.28c2.61,0.21,5.51,0.81,7.8-0.05c3.97-1.48,7.54-1.72,11.24,0.31C576,366.11,576,371.56,576,377.02z
		 M553.16,363.18c-0.12,0.33-0.23,0.65-0.35,0.98c4.55,2.23,9.09,4.46,13.64,6.69c0.15-0.17,0.3-0.34,0.46-0.51
		c-1.24-1.18-2.49-2.36-4-3.79c1.76-1.09,3.48-2.17,5.2-3.24c-0.2-0.36-0.4-0.72-0.61-1.08c-2.25,1.2-4.46,3.24-6.77,3.37
		C558.26,365.73,555.69,364.06,553.16,363.18z"/>
	<path class="st0" d="M0,438.55c2.5-0.05,5.01-0.05,7.51-0.15c1.96-0.08,2.71,0.76,2.66,2.73c-0.09,4-0.03,8-0.03,12.63
		c3.66-2.02,7.01-3.72,10.2-5.68c2.37-1.46,3.68-1.27,5.09,1.39c5.09,9.55,5.34,6.97-3.46,12.2c-1.67,0.99-3.37,1.92-5.63,3.2
		c3.82,2.31,7.15,4.44,10.6,6.36c1.97,1.1,2.38,2.3,1.16,4.2c-1.18,1.83-2.3,3.7-3.32,5.62c-1.02,1.92-2.13,2.42-4.15,1.13
		c-3.36-2.13-6.89-4-10.96-6.32c0,4.63-0.07,8.53,0.03,12.44c0.06,2.34-1.01,3.14-3.18,2.98c-2.17-0.16-4.34-0.25-6.51-0.36
		C0,473.45,0,456,0,438.55z"/>
	<path class="st0" d="M243.49,0c-9.84,9.67-19.53,19.49-29.58,28.93c-4.82,4.52-13.4,3.51-18.05-1.44
		c-4.63-4.92-4.64-13.2,0.02-18.12c2.98-3.15,5.99-6.25,8.99-9.38c2.4,0,4.8,0,7.2,0c-0.1,0.62-0.16,1.26-0.31,1.87
		c-1,3.92,0.55,8.02,3.76,9.91c3.42,2.01,6.9,1.58,10.14-1.31c2.19-1.96,4.46-3.84,6.4-6.03c1.07-1.2,1.53-2.94,2.26-4.44
		C237.38,0,240.44,0,243.49,0z"/>
	<path class="st0" d="M248.07,576c-7.98-13.62-16.02-27.21-23.84-40.93c-0.98-1.72-1.35-4.28-0.89-6.18
		c0.52-2.15,0.29-3.7-0.84-5.42c-1.13-1.73-2.16-3.53-3.13-5.36c-1.09-2.06-1.06-4.16,1.04-5.49c2.3-1.46,4.46-0.77,5.94,1.46
		c1.38,2.09,2.45,4.38,3.88,6.43c0.58,0.83,1.76,1.24,2.65,1.86c1.97,1.36,4.65,2.3,5.79,4.18c8.29,13.69,16.24,27.58,24.35,41.38
		c1.55,2.63,1.98,5.25,0.77,8.08c-1.31,0-2.62,0-3.93,0c2.41-3.04,1.22-5.66-1-8.19c-0.38,0.16-0.76,0.39-1.17,0.48
		c-1.04,0.22-2.08,0.38-3.13,0.56c0.56-0.85,1.19-1.67,1.65-2.57c0.39-0.76,0.57-1.62,0.87-2.51c-2.32,0.37-3.8,0.61-5.28,0.85
		c-0.06-0.33-0.12-0.67-0.18-1c1.15-0.91,2.3-1.81,3.36-2.64c-0.85-2.49-2.06-1.91-3.59-1c-1.23,0.73-2.69,1.04-4.06,1.54
		c-0.17-0.41-0.34-0.81-0.51-1.22c1.11-0.78,2.22-1.57,3.35-2.33c1.22-0.82,3.06-1.43,0.93-3.2c-1.32,0.59-2.56,1.15-3.81,1.7
		c-0.23-0.23-0.46-0.47-0.68-0.7c0.49-0.71,1.01-1.4,1.45-2.14c0.47-0.78,0.87-1.6,1.31-2.4c-0.92,0.07-1.83,0.13-2.75,0.23
		c-0.77,0.09-1.53,0.23-2.3,0.35c-0.15-0.28-0.3-0.56-0.45-0.83c1.11-1,2.22-1.99,3.43-3.08c-0.47-1.88-1.48-2.35-3.23-1.18
		c-0.81,0.55-1.64,1.14-2.56,1.42c-0.55,0.17-1.28-0.21-1.93-0.34c0.25-0.54,0.36-1.29,0.78-1.59c1.39-0.97,2.9-1.77,4.36-2.63
		c-0.08-0.39-0.16-0.78-0.24-1.17c-1.78,0.24-3.56,0.48-5.33,0.72c-0.12-0.32-0.25-0.65-0.37-0.97c0.89-0.63,2.01-1.1,2.6-1.95
		c0.43-0.61,0.16-1.72,0.22-2.99c-1.96,1.03-3.08,1.61-4.38,2.3c-1.65-3.21,1.89-2.89,2.61-4.64c-0.41-0.56-0.92-1.27-1.36-1.87
		c-2.23,1.07-4.14,1.98-6.05,2.89c-0.26-0.45-0.53-0.9-0.79-1.35c1.81-1.32,3.62-2.64,5.51-4.03c-1.19-2.41-2.11-4.79-5.47-4.83
		c-1.1-0.01-2.28-0.93-3.26-1.66c-0.69-0.51-1.1-1.39-1.63-2.1c-0.27,0.15-0.55,0.3-0.82,0.46c0.4,0.85,0.91,1.67,1.16,2.57
		c0.26,0.98,0.76,2.47,0.31,2.96c-2.26,2.48-1.01,4.56,0.3,6.78c5.57,9.48,11.16,18.95,16.65,28.47c2.43,4.22,4.66,8.55,6.98,12.84
		C250.25,576,249.16,576,248.07,576z"/>
	<path class="st0" d="M0,284.73c4.03-2.2,7.99-4.22,12.91-2.74c9.7,2.91,13.19,14.56,6.18,21.92C12.93,310.36,6.38,316.44,0,322.69
		c0-2.4,0-4.8,0-7.2c5.73-4.36,5.73-10.34,0-14.4C0,295.64,0,290.18,0,284.73z"/>
	<path class="st0" d="M510.55,576c4.95-5.03,9.87-10.09,14.86-15.08c7.15-7.15,14.32-14.27,21.54-21.35
		c4.75-4.66,8.86-4.36,14.03,0.87c4.56,4.62,4.69,8.82,0.21,13.32c-6.59,6.62-13.28,13.14-19.9,19.73c-0.74,0.74-1.3,1.66-1.94,2.5
		c-1.75,0-3.49,0-5.24,0c0.65-0.95,1.18-2.02,1.98-2.82c7.41-7.39,14.85-14.73,22.31-22.07c1.58-1.55,3.06-3.54,1.57-5.43
		c-1.72-2.19-4.07-4.67-6.54-5.21c-1.7-0.37-4.08,2.34-6.25,3.74c0.83,1.06,1.17,1.37,1.36,1.75c0.56,1.13,1.07,2.29,1.6,3.44
		c-1.13-0.49-2.22-1.14-3.39-1.41c-1.03-0.24-2.15-0.05-3.23-0.05c0.66,1.81,1.6,2.62,2.18,3.63c0.32,0.56,0.05,1.46,0.05,2.21
		c-0.66-0.11-1.56,0.02-1.92-0.37c-0.8-0.85-1.32-1.96-1.96-2.97c-0.26,0.26-0.52,0.51-0.77,0.77c-0.87,0.57-1.75,1.13-2.67,1.73
		c1.9,2.01,3.32,3.37,4.54,4.89c0.41,0.52,0.3,1.45,0.43,2.2c-0.77-0.13-1.71-0.03-2.27-0.44c-1.14-0.82-2.16-1.85-3.08-2.92
		c-1.5-1.74-2.34-0.9-3.2,0.77c0.78,0.85,1.69,1.65,2.34,2.63c0.33,0.5,0.17,1.32,0.24,2c-0.69,0-1.42,0.14-2.04-0.06
		c-0.46-0.14-0.71-0.89-1.18-1.08c-0.85-0.34-1.78-0.45-2.68-0.66c0.18,0.98,0.3,1.98,0.58,2.94c0.11,0.37,0.78,0.61,0.83,0.96
		c0.11,0.73-0.02,1.5-0.05,2.25c-0.65-0.13-1.48-0.07-1.92-0.45c-0.81-0.7-1.4-1.67-2.21-2.67c-1.16,1.03-1.93,1.72-3.39,3.03
		c1.75,1.46,3.36,2.6,4.69,4.01c0.47,0.5,0.26,1.63,0.37,2.48c-0.74-0.19-1.75-0.15-2.18-0.62c-1.32-1.44-2.42-3.09-3.5-4.51
		c-3.7,2.24-1.32,3.22-0.54,4.5c0.42,0.7,0.41,1.66,0.6,2.5c-0.82-0.19-1.74-0.21-2.43-0.61c-0.9-0.52-1.61-1.36-2.29-1.96
		c-2.7,0.91-1.72,2.43-1.03,3.88C516.22,576,513.38,576,510.55,576z"/>
	<path class="st0" d="M550.47,0c-3.1,7.35-4.25,15.02-3.83,22.97c0.07,1.37-0.13,2.94-0.77,4.1c-0.58,1.04-1.87,2.09-2.99,2.28
		c-0.62,0.11-2.07-1.46-2.23-2.42c-0.61-3.63-0.98-7.32-1.17-10.99c-0.2-3.87-1.35-5.56-4.31-5.61c-3-0.05-4.46,1.58-4.84,5.33
		c-0.37,3.67-0.64,7.37-1.26,11c-0.17,1-1.42,1.82-2.17,2.72c-1.07-0.91-2.78-1.64-3.08-2.76c-0.65-2.37-0.86-4.96-0.72-7.43
		c0.34-5.96-0.33-11.72-2.5-17.3c-0.22-0.57-0.16-1.26-0.23-1.89C530.4,0,540.44,0,550.47,0z"/>
	<path class="st0" d="M417.6,0c4.3,7.54,8.58,15.1,12.91,22.62c3.31,5.75,6.69,11.47,10.02,17.2c2.68,4.61,1.84,8.24-2.5,10.81
		c-5.66,3.35-9.06,2.86-11.93-2.01c-8.23-13.97-16.44-27.95-24.44-42.04c-1.03-1.81-0.75-4.37-1.08-6.58c1.31,0,2.62,0,3.93,0
		c0.11,1.95-0.43,4.27,0.44,5.79c7.85,13.82,15.96,27.5,23.96,41.24c1.39,2.39,3.17,3.06,5.72,1.82c4.98-2.42,5.42-4.81,1.58-9.27
		c-1.24,0.57-2.47,1.14-3.7,1.72c-0.28-0.32-0.56-0.64-0.83-0.96c1.06-1.14,2.11-2.28,3.77-4.07c-1.29-0.15-2.18-0.33-3.07-0.32
		c-0.97,0.01-1.94,0.19-2.9,0.29c0.65-0.84,1.27-1.7,1.95-2.52c0.26-0.32,0.65-0.53,0.98-0.79c0.03-0.35,0.06-0.69,0.09-1.04
		c-1.01-0.14-2.08-0.55-3.02-0.35c-1.02,0.22-1.88,1.1-2.88,1.49c-0.49,0.19-1.16-0.07-1.74-0.12c0.21-0.63,0.23-1.48,0.66-1.83
		c1-0.81,2.29-1.29,3.29-2.1c0.4-0.33,0.36-1.19,0.52-1.81c-0.56-0.08-1.13-0.27-1.68-0.23c-1.12,0.08-2.23,0.29-3.34,0.45
		c0.87-0.94,1.74-1.87,2.6-2.81c0.14-0.15,0.22-0.35,0.86-1.38c-1.42-0.09-2.36-0.17-3.3-0.2c-0.93-0.03-1.86-0.02-2.79-0.02
		c0.56-0.69,1.07-1.42,1.68-2.06c0.36-0.38,0.88-0.61,1.35-0.92c-0.33-2.08-1.16-2.79-3.05-1.51c-0.8,0.55-1.67,1.08-2.59,1.37
		c-0.59,0.19-1.32-0.07-1.98-0.13c0.31-0.61,0.46-1.43,0.95-1.79c1.35-0.99,2.84-1.8,4.27-2.67c-0.12-0.37-0.23-0.75-0.35-1.12
		c-1.78,0.25-3.57,0.5-5.21,0.72c-0.55-2.64,4.74-2.43,2.33-5.07c-2.05,0.19-3.47,0.33-4.89,0.46c0.91-1.16,1.83-2.32,2.98-3.78
		c-0.22-1.53-1.22-2-3-0.93c-1.02,0.62-2.04,1.27-3.13,1.73c-0.35,0.15-1.14-0.13-1.35-0.45c-0.18-0.28,0.03-1.09,0.33-1.35
		c0.74-0.63,1.58-1.18,2.47-1.58c1.89-0.87,2.31-2.1,1.19-3.85C414.98,0,416.29,0,417.6,0z"/>
	<path class="st0" d="M87.05,0c2.23,3.44,4.22,7.07,6.74,10.29c4.54,5.79,4.41,13-0.66,17.24c-4.86,4.06-11.88,3.81-16.29-0.58
		c-4.59-4.58-4.51-10.93-0.12-16.53C79.3,7.12,81.44,3.48,83.78,0C84.87,0,85.96,0,87.05,0z"/>
	<path class="st0" d="M251.35,576c-2.32-4.28-4.54-8.62-6.98-12.84c-5.49-9.52-11.08-18.99-16.65-28.47
		c-1.31-2.23-2.56-4.3-0.3-6.78c0.45-0.49-0.05-1.99-0.31-2.96c-0.24-0.89-0.76-1.72-1.16-2.57c0.27-0.15,0.55-0.3,0.82-0.46
		c0.53,0.71,0.95,1.59,1.63,2.1c0.98,0.72,2.16,1.65,3.26,1.66c3.36,0.03,4.28,2.42,5.47,4.83c-1.89,1.38-3.7,2.71-5.51,4.03
		c0.26,0.45,0.53,0.9,0.79,1.35c1.91-0.91,3.82-1.83,6.05-2.89c0.44,0.6,0.95,1.31,1.36,1.87c-0.72,1.75-4.27,1.42-2.61,4.64
		c1.31-0.68,2.42-1.27,4.38-2.3c-0.06,1.27,0.21,2.37-0.22,2.99c-0.59,0.84-1.71,1.32-2.6,1.95c0.12,0.32,0.25,0.65,0.37,0.97
		c1.78-0.24,3.56-0.48,5.33-0.72c0.08,0.39,0.16,0.78,0.24,1.17c-1.46,0.87-2.97,1.67-4.36,2.63c-0.42,0.29-0.53,1.05-0.78,1.59
		c0.65,0.13,1.38,0.51,1.93,0.34c0.91-0.28,1.75-0.88,2.56-1.42c1.74-1.17,2.75-0.69,3.23,1.18c-1.21,1.09-2.32,2.09-3.43,3.08
		c0.15,0.28,0.3,0.56,0.45,0.83c0.77-0.12,1.53-0.27,2.3-0.35c0.91-0.1,1.83-0.16,2.75-0.23c-0.43,0.8-0.84,1.62-1.31,2.4
		c-0.45,0.74-0.97,1.43-1.45,2.14c0.23,0.23,0.46,0.47,0.68,0.7c1.24-0.56,2.49-1.11,3.81-1.7c2.12,1.77,0.29,2.39-0.93,3.2
		c-1.13,0.75-2.23,1.55-3.35,2.33c0.17,0.41,0.34,0.81,0.51,1.22c1.36-0.5,2.83-0.82,4.06-1.54c1.53-0.91,2.74-1.49,3.59,1
		c-1.06,0.83-2.21,1.74-3.36,2.64c0.06,0.33,0.12,0.67,0.18,1c1.48-0.24,2.96-0.48,5.28-0.85c-0.3,0.89-0.48,1.75-0.87,2.51
		c-0.46,0.9-1.09,1.72-1.65,2.57c1.04-0.18,2.09-0.34,3.13-0.56c0.41-0.09,0.79-0.32,1.17-0.48c2.22,2.53,3.41,5.15,1,8.19
		C257.02,576,254.18,576,251.35,576z"/>
	<path class="st0" d="M413.67,0c1.12,1.75,0.7,2.98-1.19,3.85c-0.88,0.41-1.73,0.95-2.47,1.58c-0.3,0.26-0.51,1.07-0.33,1.35
		c0.21,0.33,1,0.6,1.35,0.45c1.09-0.46,2.11-1.11,3.13-1.73c1.78-1.07,2.78-0.6,3,0.93c-1.15,1.46-2.07,2.62-2.98,3.78
		c1.42-0.13,2.84-0.27,4.89-0.46c2.41,2.64-2.88,2.43-2.33,5.07c1.64-0.23,3.42-0.48,5.21-0.72c0.12,0.37,0.23,0.75,0.35,1.12
		c-1.43,0.88-2.92,1.68-4.27,2.67c-0.49,0.36-0.64,1.18-0.95,1.79c0.67,0.06,1.4,0.32,1.98,0.13c0.92-0.29,1.78-0.82,2.59-1.37
		c1.88-1.29,2.71-0.57,3.05,1.51c-0.47,0.31-0.99,0.54-1.35,0.92c-0.61,0.64-1.13,1.37-1.68,2.06c0.93,0.01,1.86-0.01,2.79,0.02
		c0.94,0.03,1.87,0.11,3.3,0.2c-0.64,1.03-0.72,1.23-0.86,1.38c-0.86,0.94-1.74,1.88-2.6,2.81c1.11-0.16,2.22-0.36,3.34-0.45
		c0.55-0.04,1.12,0.15,1.68,0.23c-0.16,0.62-0.12,1.49-0.52,1.81c-1,0.82-2.28,1.29-3.29,2.1c-0.43,0.35-0.45,1.21-0.66,1.83
		c0.59,0.05,1.25,0.31,1.74,0.12c1.01-0.39,1.86-1.27,2.88-1.49c0.94-0.2,2.01,0.21,3.02,0.35c-0.03,0.35-0.06,0.69-0.09,1.04
		c-0.33,0.26-0.72,0.47-0.98,0.79c-0.68,0.81-1.3,1.67-1.95,2.52c0.97-0.1,1.94-0.28,2.9-0.29c0.89,0,1.78,0.18,3.07,0.32
		c-1.66,1.79-2.72,2.93-3.77,4.07c0.28,0.32,0.56,0.64,0.83,0.96c1.23-0.57,2.47-1.15,3.7-1.72c3.83,4.46,3.4,6.85-1.58,9.27
		c-2.55,1.24-4.33,0.58-5.72-1.82c-8-13.74-16.11-27.42-23.96-41.24c-0.86-1.52-0.32-3.84-0.44-5.79C407.56,0,410.62,0,413.67,0z"/>
	<path class="st0" d="M0,325.31c4-3.82,8-7.65,12.24-11.7c3.59,3.86,8.08,6.75,9.25,12.11c1.15,5.29-0.15,10.03-4.45,13.52
		c-4.24,3.44-9.03,4.05-14.09,1.84c-0.99-0.43-1.97-0.91-2.95-1.37C0,334.91,0,330.11,0,325.31z"/>
	<path class="st0" d="M519.05,576c-0.68-1.46-1.67-2.97,1.03-3.88c0.68,0.6,1.4,1.43,2.29,1.96c0.69,0.4,1.61,0.42,2.43,0.61
		c-0.18-0.84-0.17-1.8-0.6-2.5c-0.78-1.28-3.16-2.26,0.54-4.5c1.08,1.43,2.18,3.07,3.5,4.51c0.43,0.48,1.44,0.43,2.18,0.62
		c-0.1-0.84,0.1-1.98-0.37-2.48c-1.33-1.41-2.94-2.55-4.69-4.01c1.46-1.3,2.23-1.99,3.39-3.03c0.8,1.01,1.39,1.97,2.21,2.67
		c0.44,0.38,1.27,0.31,1.92,0.45c0.03-0.75,0.16-1.52,0.05-2.25c-0.05-0.35-0.73-0.59-0.83-0.96c-0.28-0.95-0.4-1.95-0.58-2.94
		c0.9,0.21,1.83,0.32,2.68,0.66c0.46,0.18,0.72,0.93,1.18,1.08c0.63,0.2,1.36,0.06,2.04,0.06c-0.06-0.68,0.09-1.5-0.24-2
		c-0.64-0.98-1.55-1.78-2.34-2.63c0.86-1.68,1.7-2.51,3.2-0.77c0.92,1.07,1.94,2.1,3.08,2.92c0.57,0.41,1.5,0.31,2.27,0.44
		c-0.13-0.74-0.02-1.68-0.43-2.2c-1.22-1.52-2.64-2.88-4.54-4.89c0.92-0.6,1.8-1.17,2.67-1.73c0.26-0.26,0.52-0.51,0.77-0.77
		c0.64,1,1.16,2.11,1.96,2.97c0.36,0.39,1.27,0.26,1.92,0.37c0-0.75,0.27-1.65-0.05-2.21c-0.58-1.01-1.52-1.81-2.18-3.63
		c1.08,0,2.21-0.19,3.23,0.05c1.18,0.27,2.27,0.92,3.39,1.41c-0.53-1.15-1.04-2.31-1.6-3.44c-0.19-0.38-0.52-0.69-1.36-1.75
		c2.17-1.4,4.54-4.11,6.25-3.74c2.47,0.54,4.81,3.02,6.54,5.21c1.49,1.89,0.01,3.87-1.57,5.43c-7.46,7.34-14.9,14.69-22.31,22.07
		c-0.8,0.8-1.33,1.87-1.98,2.82C529.09,576,524.07,576,519.05,576z"/>
	<path class="st0" d="M163.64,576c-2.39-5.26-1.4-9.98,2.45-14.11c3.84-4.12,6.82-8.68,8.44-14.34c1.4,6.67,5.76,11.48,9.64,16.61
		c2.74,3.62,2.1,7.76,1.07,11.84C178.04,576,170.84,576,163.64,576z"/>
	<path class="st0" d="M576,467.35c-2.57,3.29-2.12,6.89-0.97,10.65c-0.81,0.39-1.56,0.74-2.25,1.07c-0.29-0.25-0.52-0.35-0.57-0.52
		c-1.48-4.51-0.89-8.76,1.45-12.89c0.55-0.97,0.86-2.65,0.4-3.53c-2.52-4.81-4.9-9.78-8.11-14.11c-6.15-8.3-17.89-10.28-25.98-4.56
		c-7.22,5.09-8.56,12.6-7,20.68c1.22,6.27,4.47,11.57,9.65,15.47c1.3,0.98,2.91,1.56,4.7,2.48c-0.42,0.77-1.03,1.88-1.59,2.89
		c-8.36-4.47-13.19-11.48-15.39-20.3c-2.47-9.88,1.59-20.12,9.55-24.8c7.61-4.47,18.37-3.14,25.67,3.83
		c3.07,2.93,5.18,6.87,7.65,10.41c1.04,1.49,1.87,3.13,2.8,4.71C576,461.67,576,464.51,576,467.35z"/>
	<path class="st0" d="M576,300.44c-1.45,2.75-3.67,3.09-6.52,2.42c-1.48-0.35-3.14,0.19-4.71,0.13c-1.54-0.06-3.06-0.37-5.36-0.67
		c-1.73,2.29-3.9,5.22-6.12,8.11c-2.16,2.81-4.38,5.58-6.58,8.37c-0.29-0.21-0.58-0.43-0.87-0.64c2.11-2.87,4.21-5.74,6.33-8.6
		c2.13-2.87,4.28-5.72,5.71-7.62c-0.96-3.59-1.22-6.48-2.48-8.83c-1.85-3.46-1.88-5.95,0.79-9.22c6.26-7.66,11.96-15.77,17.93-23.67
		c0.49-0.66,1.25-1.12,1.88-1.67c0,1.09,0,2.18,0,3.27c-1.34,1.7-2.67,3.39-4.01,5.09c-3.51,4.72-7.01,9.44-10.52,14.17
		c-1.21,1.53-2.41,3.07-3.62,4.6c-1.21,1.54-0.85,2.55,0.77,3.67c3.66,2.52,7.29,5.11,10.68,7.98c2.48,2.09,4.52,2.73,6.69-0.17
		C576,298.25,576,299.35,576,300.44z"/>
	<path class="st0" d="M234.33,0c-0.73,1.5-1.2,3.24-2.26,4.44c-1.94,2.18-4.21,4.07-6.4,6.03c-3.24,2.9-6.71,3.32-10.14,1.31
		c-3.22-1.89-4.77-5.99-3.76-9.91c0.16-0.61,0.21-1.25,0.31-1.87C219.49,0,226.91,0,234.33,0z"/>
	<path class="st0" d="M0,22.91c3.15-0.69,6.29-1.39,9.87-2.18C10.97,25.99,12.09,31,13,36.06c0.1,0.54-0.88,1.78-1.49,1.87
		C7.7,38.5,3.84,38.85,0,39.27C0,33.82,0,28.36,0,22.91z"/>
	<path class="st0" d="M576,136.8c-4.28-0.34-8.72-1.59-12.79-0.83c-8.09,1.5-13.42,9.24-13.3,17.86c0.11,8.19,3.37,14.99,9.61,20.27
		c1.46,1.23,3.36,1.94,5.32,3.05c-0.37,0.69-0.95,1.76-1.52,2.83c-12.69-6.39-17.67-21.44-15.74-30.37
		c3.05-14.09,14.98-20.63,28.42-15.43C576,135.05,576,135.93,576,136.8z"/>
	<path class="st0" d="M561.47,281.07c3.51-4.72,7.01-9.44,10.52-14.17c1.34,1.14,2.67,2.28,4.01,3.42c0,6.76,0,13.53,0,20.29
		c-3.56-2.55-7.08-5.15-10.69-7.63C564.14,282.19,562.76,281.7,561.47,281.07z M567.37,273.98c-0.26,0.35-0.52,0.7-0.78,1.05
		c2.63,1.95,5.25,3.9,7.88,5.86c0.25-0.34,0.5-0.68,0.75-1.02C572.6,277.91,569.98,275.94,567.37,273.98z"/>
	<path class="st0" d="M561.47,281.07c1.29,0.63,2.67,1.11,3.84,1.91c3.61,2.48,7.13,5.08,10.69,7.63c0,2.18,0,4.36,0,6.55
		c-2.17,2.89-4.21,2.26-6.69,0.17c-3.39-2.86-7.03-5.45-10.68-7.98c-1.62-1.12-1.98-2.14-0.77-3.67
		C559.06,284.14,560.27,282.61,561.47,281.07z"/>
	<path class="st0" d="M340.4,576c-0.82-1.23-1.51-2.58-2.48-3.68c-4.74-5.39-9.61-10.67-14.31-16.11c-1.03-1.19-1.74-2.79-2.21-4.32
		c-1.15-3.76-0.3-6.86,2-8.23c2.56-1.52,6.77-0.73,9.33,1.75c3.98,3.86,4.26,8.19,0.79,12.49c-0.88,1.09-1.87,2.1-3.33,3.73
		c3.78,3.62,7.6,7.27,11.4,10.94c1.15,1.11,2.23,2.29,3.35,3.43c-1.53,0-3.05,0-4.58,0L340.4,576z M326.78,544.02
		c-2.4-0.03-4.93,2.21-4.59,4.53c0.57,3.95,2.04,7.64,5.55,9.91c0.93,0.6,2.82,0.62,3.81,0.08c2.33-1.28,3.79-6.25,2.97-8.74
		C333.64,547.18,329.46,544.06,326.78,544.02z"/>
	<path class="st0" d="M340.4,576l-0.04,0c-1.31,0-2.62,0-3.93,0c-4.1-2.98-8.19-5.95-12.42-9.03c-1.09,1.6-1.77,2.69-2.55,3.71
		c-2.15,2.81-4.88,4.31-8.5,3.49c-3.71-0.84-6.19-3.11-7.22-6.77c-1.51-5.41,2.15-9.35,7.75-8.29c1.67,0.32,3.4,0.97,4.81,1.91
		C325.73,565.93,333.05,570.99,340.4,576z M321.74,566.29c-0.48-0.66-1.13-2.16-2.26-2.94c-1.66-1.15-3.63-1.9-5.54-2.61
		c-2.15-0.8-4.32-0.87-5.86,1.26c-1.64,2.27-1.87,4.95-0.02,6.91c1.69,1.78,4.06,3.15,6.38,4.06
		C317.44,574.12,321.88,570.33,321.74,566.29z"/>
	<path class="st0" d="M89.64,574.37c0.23,0.54,0.46,1.09,0.69,1.63c-6.11,0-12.22,0-18.33,0c1.39-2.25,2.79-4.5,4.39-7.08
		c-0.16-0.13-1.02-0.83-1.88-1.53c0.54,0.04,1.15-0.08,1.6,0.14c4.54,2.24,9.05,4.53,13.57,6.81
		C89.67,574.35,89.64,574.37,89.64,574.37z"/>
	<path class="st0" d="M0,19.64c7.22-1.51,14.43-3.14,21.68-4.5c4.19-0.78,8.03,0.28,10.94,3.61c0.49,0.56,0.51,1.53,0.33,2.75
		c-4.57-5.51-9.97-4.76-15.73-3.32C11.55,19.58,5.75,20.48,0,21.6C0,20.95,0,20.29,0,19.64z"/>
	<path class="st0" d="M0,560.29c4.18-3.42,8.21-3.36,12.62,0.18c3.3,2.65,3.91,6.58,1.57,11.17c-0.81,1.59-1.98,3,0.22,4.36
		c-1.31,0-2.62,0-3.93,0c-3.49-3.05-6.98-6.11-10.47-9.16C0,564.65,0,562.47,0,560.29z M14.91,567.04
		c-0.64-5.28-5.72-9.15-10.57-7.89c-2.81,0.73-4.44,3.8-3.01,6.31c1.1,1.93,2.51,3.93,4.29,5.16c1.71,1.18,4.44,2.38,6.04,1.78
		C13.2,571.81,13.86,568.92,14.91,567.04z"/>
	<path class="st0" d="M397.18,575.33c1.18-1.23,2.27-2.55,3.56-3.66c0.8-0.69,1.83-1.26,2.85-1.5c1.26-0.29,3-0.69,3.8-0.08
		c0.76,0.58,0.64,2.4,0.75,3.68c0.06,0.73-0.22,1.48-0.35,2.23c-3.49,0-6.98,0-10.47,0C397.27,575.78,397.22,575.55,397.18,575.33z"
		/>
	<path class="st0" d="M0,301.09c5.73,4.06,5.73,10.04,0,14.4C0,310.69,0,305.89,0,301.09z"/>
	<path class="st0" d="M0,566.84c3.49,3.05,6.98,6.11,10.47,9.16c-3.49,0-6.98,0-10.47,0C0,572.95,0,569.89,0,566.84z"/>
	<path class="st0" d="M576,180c-3.1-0.27-6.2-0.54-9.56-0.84c1.7-4.03,3.16-4.67,5.98-3.13c1.29,0.71,2.4,1.76,3.58,2.66
		C576,179.13,576,179.56,576,180z"/>
	<path class="st0" d="M187.85,576c1.25-2.61,2.51-5.22,3.97-8.27c1.12,2.87,2.18,5.57,3.23,8.27C192.65,576,190.25,576,187.85,576z"
		/>
	<path class="st0" d="M0,40.58c4.11-0.45,8.23-0.91,12.94-1.43C8.85,42.62,4.55,43.03,0,42.55C0,41.89,0,41.24,0,40.58z"/>
	<path class="st0" d="M576,270.33c-1.34-1.14-2.67-2.28-4.01-3.42c1.34-1.7,2.67-3.39,4.01-5.09C576,264.65,576,267.49,576,270.33z"
		/>
	<path class="st0" d="M397.18,575.33c0.04,0.22,0.08,0.45,0.13,0.67c-1.31,0-2.62,0-3.93,0c-0.73-1.28-1.46-2.55-2.19-3.83
		C393.19,573.22,395.19,574.28,397.18,575.33z"/>
	<path class="st0" d="M391.19,572.17c0.73,1.28,1.46,2.55,2.19,3.83c-0.22,0-0.44,0-0.65,0c-0.73-0.98-1.49-1.94-2.15-2.96
		C390.5,572.93,390.97,572.47,391.19,572.17z"/>
	<path class="st0" d="M136.54,499.76c-1.88-2.72-3.47-5.01-5.21-7.52c4.3-3.14,8.42-6.14,12.81-9.35c1.86,2.38,3.63,4.65,5.62,7.19
		c4.36-3.17,8.56-6.24,12.77-9.28c4.56-3.31,6.5-3.05,9.78,1.4c6.46,8.77,12.91,17.55,19.33,26.35c2.98,4.08,2.59,6.35-1.46,9.31
		c-13.19,9.64-26.38,19.29-39.59,28.92c-3.86,2.81-6.21,2.44-9.04-1.41c-6.58-8.95-13.15-17.91-19.71-26.88
		c-2.66-3.63-2.36-6.08,1.31-8.88C127.47,506.31,131.9,503.16,136.54,499.76z M163.79,514.42c1.45-1.2,3.66-2.18,4.2-3.74
		c0.46-1.33-0.7-3.51-1.66-4.99c-1.91-2.96-2.05-2.87-8.37,0.49c-2.7-0.75-2.62-6.77-7.19-3.73c-1.5,1-3.92,2.39-3.89,3.55
		c0.05,2.22,1.55,4.42,2.42,6.54c-0.98,2.4-6.3,2.29-3.81,6.59c0.95,1.64,2.46,4.09,3.78,4.13c2.18,0.07,4.42-1.52,6.57-2.38
		c2.34,1.26,2.56,6.7,7.16,3.4C167.36,521.15,167.41,521.22,163.79,514.42z M146.84,492.33c-1.14-1.59-2.18-3.04-3.38-4.71
		c-2.57,1.9-4.95,3.65-7.47,5.51c1.28,1.65,2.31,2.99,3.44,4.46C141.89,495.85,144.09,494.29,146.84,492.33z"/>
	<path class="st0" d="M498.17,203.54c-1.77-2.45-3.36-4.64-5.29-7.31c4.25-3.16,8.46-6.28,12.86-9.55c1.91,2.5,3.62,4.72,5.55,7.25
		c4.38-3.17,8.68-6.26,12.95-9.38c4.28-3.12,6.48-2.87,9.56,1.31c6.58,8.94,13.13,17.91,19.66,26.9c2.64,3.63,2.15,6.12-1.5,8.8
		c-13.09,9.58-26.18,19.16-39.26,28.76c-4.4,3.23-6.62,2.95-9.8-1.4c-6.49-8.87-12.98-17.74-19.44-26.63
		c-2.77-3.81-2.43-5.97,1.33-8.79C489.15,210.23,493.53,207,498.17,203.54z M511.23,216.2c-5.5,4.95-5.5,4.95-3.21,8.14
		c2.7,3.76,2.7,3.76,9.19,0.16c2.49,1.27,3.01,7.15,7.69,3.35c1.25-1.02,3.51-2.29,3.39-3.2c-0.27-2.18-1.69-4.22-2.65-6.34
		c1.09-2.41,6.93-2.74,3.42-7.37c-1.03-1.36-2.38-3.65-3.44-3.57c-2.15,0.16-4.21,1.64-6.33,2.59c-4.91-5.25-4.91-5.25-8.75-2.37
		C507.45,209.92,507.45,209.92,511.23,216.2z M504.97,191.55c-2.57,1.89-4.87,3.58-7.35,5.4c1.31,1.71,2.32,3.03,3.46,4.52
		c2.63-1.95,4.92-3.65,7.44-5.52C507.2,194.31,506.15,193.01,504.97,191.55z"/>
	<path class="st0" d="M186.8,179.07c1.88,2.39,3.62,4.6,5.63,7.15c4.11-3.04,8.22-6.01,12.25-9.07c4.99-3.78,6.92-3.56,10.73,1.51
		c6.42,8.52,12.81,17.06,19.21,25.6c2.83,3.78,2.56,6.2-1.3,9.12c-13.1,9.92-26.24,19.79-39.41,29.63
		c-3.86,2.89-6.11,2.44-9.05-1.47c-6.6-8.79-13.21-17.57-19.8-26.37c-3.03-4.04-2.76-6.14,1.34-9.29c4.22-3.24,8.5-6.41,12.96-9.77
		c-1.78-2.52-3.45-4.89-5.27-7.48C178.29,185.46,182.44,182.35,186.8,179.07z M198.65,216.79c5.51,5.15,5.51,5.15,8.74,2.59
		c3.15-2.5,3.15-2.5-0.59-8.93c1.44-1.21,3.78-2.24,4.15-3.75c0.38-1.54-0.9-3.73-1.91-5.34c-3.22-5.11-5.5,0.35-8.24,0.88
		c-5.62-5.05-5.5-4.89-9.37-2.13c-4.99,3.55,0.49,5.58,1.01,8.48c-1.42,1.3-3.77,2.47-4.15,4.1c-0.36,1.52,1.13,3.71,2.25,5.29
		C193.92,222.8,195.87,217.12,198.65,216.79z M182.28,193.98c2.6-2.02,4.87-3.79,7.28-5.67c-1.28-1.65-2.31-3-3.46-4.48
		c-2.56,1.94-4.87,3.7-7.35,5.59C179.93,190.94,180.98,192.3,182.28,193.98z"/>
	<path class="st0" d="M463.02,508.54c-1.83-2.57-3.45-4.84-5.29-7.42c4.36-3.19,8.53-6.23,12.88-9.4c1.93,2.52,3.63,4.75,5.52,7.23
		c4.62-3.35,9.06-6.63,13.57-9.83c3.65-2.59,5.99-2.25,8.6,1.3c6.72,9.12,13.42,18.26,20.06,27.44c2.5,3.45,1.99,6.11-1.46,8.64
		c-13.19,9.65-26.39,19.31-39.6,28.93c-4.28,3.12-6.24,2.89-9.29-1.23c-6.56-8.84-13.07-17.7-19.51-26.62
		c-3.17-4.39-2.76-6.24,1.6-9.45C454.29,515.04,458.47,511.91,463.02,508.54z M475.87,521.14c-1.55,2.56-6.92,3.02-3.38,7.71
		c2.93,3.89,2.78,4.01,9.55,0.66c2.44,1.42,3.07,7.14,7.72,3.28c1.24-1.03,3.47-2.31,3.35-3.22c-0.28-2.18-1.7-4.2-2.67-6.31
		c1.2-2.33,6.61-2.69,3.57-7.16c-1.01-1.49-2.51-3.81-3.7-3.76c-2.12,0.09-4.17,1.69-6.26,2.66c-2.31-1.51-2.78-6.87-7.45-3.44
		C472.4,514.64,472.35,514.58,475.87,521.14z M462.42,501.9c1.37,1.73,2.45,3.12,3.57,4.53c2.57-1.92,4.82-3.59,7.28-5.43
		c-1.17-1.55-2.23-2.95-3.43-4.54C467.27,498.34,465.02,499.99,462.42,501.9z"/>
	<path class="st0" d="M38.25,381.89c5.53-8.95,14.11-11.83,22.21-7.5c6.77,3.61,9,14.45,4.66,23.64c-2.49-4.87-4.89-9.56-7.71-15.09
		c-2.57,6.77-4.88,12.85-7.48,19.7c-1.19-3.39-2.15-6.1-3.39-9.65c-1.46,3.33-2.8,5.97-3.77,8.73c-0.7,1.99-1.81,2.66-3.84,2.56
		c-3.48-0.17-6.98-0.23-10.46-0.07c-0.91,0.04-1.78,1.07-2.67,1.64c0.16,0.45,0.33,0.9,0.49,1.35c5.5,0,11.03,0.27,16.49-0.21
		c1.22-0.11,2.22-2.82,3.51-4.6c1.07,3.01,2.12,5.96,3.46,9.72c2.8-7.48,5.32-14.2,8.06-21.51c1.97,3.93,3.77,7.16,5.18,10.55
		c0.39,0.94-0.04,2.54-0.62,3.53c-5.34,9.12-13.55,14.86-22.96,19.1c-0.79,0.36-2.02,0.45-2.78,0.1
		c-12.71-5.98-22.78-14.46-26.5-28.72c-1.32-5.05-1.59-10.16,0.57-15.06c2.3-5.21,6.45-7.67,12.14-7.79
		c6.07-0.14,11.23,1.38,14.24,7.2C37.52,380.28,37.87,381.08,38.25,381.89z"/>
	<path class="st0" d="M376.36,411.53c-1.25-3.55-2.21-6.27-3.43-9.73c-1.43,3.27-2.72,5.84-3.68,8.53
		c-0.73,2.05-1.75,2.91-4.03,2.76c-3.48-0.22-6.98-0.15-10.46,0.01c-0.8,0.04-1.55,0.95-2.32,1.46c0.8,0.55,1.58,1.54,2.39,1.57
		c4.47,0.16,8.94,0.16,13.41,0.01c0.84-0.03,1.85-0.82,2.42-1.54c0.76-0.97,1.17-2.22,1.96-3.8c1.24,3.42,2.29,6.31,3.64,10.03
		c2.78-7.41,5.28-14.06,8.02-21.37c2.08,4.13,3.88,7.56,5.48,11.08c0.27,0.6-0.12,1.68-0.51,2.36c-5.5,9.6-14.05,15.57-23.89,19.97
		c-0.59,0.26-1.53,0.23-2.12-0.05c-12.34-5.85-22.38-13.94-26.33-27.72c-1.4-4.87-1.87-9.84-0.27-14.8
		c1.89-5.84,6.21-8.95,12.82-9.27c7-0.34,12.14,2.6,14.53,8.3c0.2,0.48,0.44,0.95,0.72,1.55c4.39-8.61,12.77-11.82,21.04-8.24
		c7.5,3.24,10.1,13.19,5.96,24.45c-2.64-5.12-5.07-9.84-7.88-15.32C381.28,398.48,378.98,404.57,376.36,411.53z"/>
	<path class="st0" d="M411.42,115.99c2.8-7.54,5.25-14.16,8.01-21.6c2.08,4.17,3.95,7.76,5.6,11.43c0.25,0.56-0.37,1.64-0.78,2.36
		c-5.49,9.46-13.99,15.33-23.7,19.7c-0.66,0.3-1.73,0.16-2.43-0.17c-11.02-5.26-20.18-12.48-24.95-24.18
		c-2.23-5.47-3.02-11.17-1.68-16.97c1.48-6.42,5.96-10.05,12.49-10.51c7.4-0.52,12.81,2.49,15.33,8.56
		c0.12,0.29,0.27,0.57,0.45,0.96c1.32-1.87,2.31-3.96,3.89-5.4c4.97-4.49,10.9-4.68,16.85-2.6c5.73,2.01,8.12,6.75,8.2,12.51
		c0.05,3.82-0.6,7.66-0.94,11.49c-0.37,0.04-0.74,0.09-1.1,0.13c-2.44-4.78-4.87-9.56-7.65-15.02c-2.52,6.72-4.82,12.86-7.45,19.85
		c-1.25-3.55-2.23-6.3-3.4-9.62c-1.08,2.37-1.98,4.25-2.81,6.17c-2.16,4.99-2.15,4.99-7.75,4.95c-3.15-0.02-6.3,0-9.56,0
		c-0.87,2.13-0.55,3.19,1.88,3.16c3.92-0.05,7.86-0.11,11.77,0.09c2.61,0.13,4.42-0.44,4.96-3.28c0.11-0.58,0.56-1.09,1.14-2.17
		C409.05,109.34,410.12,112.34,411.42,115.99z"/>
	<path class="st0" d="M98.82,80.07c-2.45,6.8-4.65,12.89-7.16,19.88c-1.31-3.48-2.34-6.22-3.63-9.66c-1.26,3.05-2.54,5.35-3.17,7.83
		c-0.78,3.07-2.54,3.73-5.41,3.53c-3.03-0.22-6.11-0.1-9.14,0.15c-0.86,0.07-1.65,1.1-2.46,1.69c0.83,0.44,1.66,1.24,2.51,1.26
		c3.81,0.13,7.64-0.14,11.44,0.08c2.66,0.15,4.34-0.56,4.98-3.26c0.14-0.6,0.54-1.14,1.09-2.24c1.25,3.4,2.33,6.33,3.73,10.15
		c2.7-7.51,5.09-14.16,7.76-21.59c2.1,4.03,3.97,7.41,5.59,10.9c0.31,0.66-0.13,1.86-0.56,2.63c-5.27,9.61-13.77,15.5-23.39,20.04
		c-0.61,0.29-1.56,0.34-2.16,0.06c-13.63-6.29-24.46-15.2-27.52-30.82c-0.64-3.24-0.55-6.79,0.03-10.06
		c1.11-6.23,5.62-10.05,11.62-10.63c7.83-0.76,12.95,1.7,15.85,7.63c0.27,0.56,0.53,1.12,0.83,1.73
		c5.52-8.99,13.97-12.04,21.89-7.97c7.01,3.6,9.4,13.76,5.35,23.94C104.21,90.29,101.7,85.53,98.82,80.07z"/>
	<path class="st0" d="M342.71,473.76c3.98,2.36,7.29,4.41,10.7,6.31c1.94,1.08,2.4,2.24,1.07,4.15c-1.18,1.69-2.26,3.48-3.13,5.35
		c-1.15,2.46-2.68,2.43-4.71,1.2c-3.23-1.95-6.5-3.83-10.62-6.24c0,4.54-0.08,8.3,0.03,12.05c0.08,2.61-0.81,3.64-3.6,3.54
		c-10.42-0.38-8.98,1.51-8.98-9c0-1.95,0-3.9,0-6.51c-3.81,2.1-7.25,3.83-10.51,5.85c-2.19,1.36-3.41,0.99-4.62-1.25
		c-4.43-8.21-4.47-8.18,3.74-12.8c1.58-0.89,3.15-1.8,5.19-2.97c-3.76-2.28-7.04-4.36-10.42-6.28c-2.02-1.15-2.51-2.29-1.19-4.43
		c5.87-9.55,3.4-8.68,12.66-3.42c1.67,0.95,3.35,1.89,5.69,3.21c0-4.53,0.08-8.39-0.03-12.26c-0.07-2.34,0.72-3.25,3.2-3.26
		c9.34-0.05,9.33-0.13,9.31,9.24c0,1.93,0,3.85,0,6.38c3.81-2.1,7.2-3.79,10.39-5.78c2.24-1.39,3.67-1.39,4.83,1.22
		c0.88,1.98,2.04,3.85,3.16,5.71c1.02,1.69,0.62,2.77-1.08,3.7C350.25,469.4,346.79,471.43,342.71,473.76z"/>
	<path class="st0" d="M52.35,173.57c0,4.71-0.08,8.63,0.03,12.54c0.06,2.3-0.91,3-3.12,3.04c-9.49,0.2-9.49,0.25-9.47-9.11
		c0-1.92,0-3.84,0-6.57c-3.77,2.2-6.99,3.91-10.03,5.91c-2.43,1.6-3.98,1.48-5.43-1.26c-4.86-9.16-5.8-6.79,3.1-12.04
		c1.77-1.05,3.53-2.12,5.82-3.5c-3.71-2.17-6.95-4.27-10.37-6.01c-2.34-1.19-2.58-2.45-1.36-4.63c4.55-8.1,4.5-8.12,12.63-3.48
		c1.67,0.95,3.37,1.85,5.64,3.09c0-4.47,0.09-8.34-0.03-12.2c-0.07-2.35,0.68-3.24,3.17-3.26c9.42-0.08,9.42-0.16,9.42,9.14
		c0,1.85,0,3.7,0,6.26c3.71-2.07,7.07-3.75,10.21-5.75c2.39-1.53,3.68-1.22,5.12,1.31c4.39,7.71,4.49,7.64-3.31,12.2
		c-1.76,1.03-3.47,2.14-5.56,3.43c3.86,2.23,7.29,4.3,10.81,6.21c1.87,1.02,2.16,2.2,1.07,3.96c-1.2,1.95-2.39,3.91-3.4,5.95
		c-1.07,2.17-2.41,2.08-4.22,0.99C59.73,177.79,56.34,175.88,52.35,173.57z"/>
	<path class="st0" d="M371.69,155.11c5.84,0,11.25,0,17.08,0c0,5.9,0,11.84,0,18.07c6.24,0,12.08,0,18.2,0c0,5.8,0,11.3,0,17.21
		c-5.83,0-11.76,0-17.97,0c0,6.25,0,12.09,0,18.21c-5.77,0-11.26,0-17.18,0c0-5.82,0-11.74,0-17.96c-6.25,0-12.09,0-18.23,0
		c0-5.79,0-11.28,0-17.19c5.83,0,11.75,0,18.1,0C371.69,167.12,371.69,161.19,371.69,155.11z M381.02,178.59
		c-1.31-0.88-2.33-2.09-3.46-2.2c-1.31-0.13-3.13,0.3-3.99,1.19c-1.8,1.87-1.02,4.27,0.41,5.94c2.08,2.43,4.59,4.48,6.99,6.76
		c2.53-2.55,5.01-4.7,7.04-7.22c1.55-1.92,1.68-4.41-0.43-6.15c-1.89-1.55-3.86-0.97-5.5,0.77
		C381.78,178,381.42,178.25,381.02,178.59z"/>
	<path class="st0" d="M251.76,358.33c-0.65,2.73-0.95,5.62-2.03,8.17c-2.78,6.53-4.3,13.2-3.86,20.32c0.11,1.72-0.14,3.49-0.39,5.21
		c-0.28,1.98-0.66,4-3.3,4.12c-2.6,0.12-2.61-2.04-2.8-3.63c-0.44-3.56-0.68-7.15-0.83-10.73c-0.11-2.82-1.24-4.59-4.19-4.76
		c-2.93-0.17-4.44,1.4-4.74,4.23c-0.4,3.79-0.65,7.6-1.22,11.36c-0.22,1.42-0.17,3.52-2.63,3.39c-2.38-0.12-3.04-1.75-3.27-3.76
		c-0.1-0.87-0.36-1.75-0.27-2.59c0.97-9.56-1.43-18.55-4.54-27.42c-0.07-0.21-0.15-0.42-0.17-0.63c-0.35-3.69-1.18-7.75,2.39-10.23
		c3.29-2.29,7.02-1.75,10.51,0.18c2.56,1.41,5.15,1.44,7.83,0.17c1.36-0.64,2.82-1.23,4.3-1.42
		C248.3,349.56,251.48,352.47,251.76,358.33z M236.5,357.75c1.85-1.17,3.45-2.18,5.06-3.19c-0.16-0.35-0.32-0.7-0.48-1.06
		c-1.51,0.69-3.26,1.1-4.46,2.14c-1.51,1.31-2.73,1.27-4.4,0.55c-1.75-0.76-3.64-1.19-5.47-1.77c-0.1,0.32-0.21,0.63-0.31,0.95
		c4.54,2.18,9.07,4.37,13.61,6.55c0.15-0.19,0.3-0.38,0.44-0.57C239.32,360.31,238.18,359.27,236.5,357.75z"/>
	<path class="st0" d="M263.51,80.67c0.86-7.07-1.33-12.77-3.24-18.58c-1-3.05-1.71-6.33-1.81-9.53c-0.16-5.14,3.38-8,8.51-7.27
		c1.58,0.23,3.05,1.3,4.63,1.46c2.59,0.25,5.23,0.2,7.84,0.02c1.14-0.08,2.2-0.91,3.35-1.2c5.94-1.51,10.02,1.61,9.76,7.74
		c-0.12,2.78-0.65,5.67-1.66,8.25c-2.67,6.8-4.04,13.72-3.59,21.04c0.13,2.13-0.15,4.4-0.83,6.41c-0.33,0.99-1.91,1.91-3.07,2.14
		c-0.57,0.11-1.99-1.32-2.13-2.2c-0.58-3.63-0.94-7.31-1.16-10.99c-0.23-3.81-1.73-5.87-4.65-5.87c-2.89,0-4.24,1.8-4.52,5.59
		c-0.28,3.68-0.64,7.37-1.27,11c-0.17,0.98-1.78,2.63-2.15,2.49c-1.22-0.47-2.83-1.47-3.09-2.55
		C263.76,85.8,263.73,82.83,263.51,80.67z M267.61,49.35c-0.04,0.41-0.08,0.81-0.12,1.22c4.57,2.19,9.14,4.38,13.72,6.56
		c0.25-0.25,0.5-0.49,0.75-0.74c-1.44-0.97-2.87-1.94-4.8-3.25c2.25-1.4,3.88-2.43,5.52-3.45c-0.07-0.49-0.15-0.98-0.22-1.47
		C277.69,52.06,272.74,52.4,267.61,49.35z"/>
	<path class="st0" d="M327.21,339.72c0,5.43,0,10.39,0,15.53c-4.91,0-9.45,0-14.66,0c0-3.92-0.17-7.89,0.06-11.85
		c0.16-2.82-0.62-3.92-3.61-3.71c-3.79,0.27-7.61,0.06-11.7,0.06c0-4.75,0-9.38,0-14.38c4.88,0,9.83,0,15.16,0
		c0-5.33,0-10.3,0-15.49c5,0,9.62,0,14.64,0c0,5.01,0,9.96,0,15.3c5.32,0,10.28,0,15.41,0c0,5.02,0,9.64,0,14.52
		C337.56,339.72,332.69,339.72,327.21,339.72z M320.35,329.82c-2.01-1.74-4.17-3.32-6.1-1c-1.81,2.18-0.6,4.53,1.29,6.32
		c1.56,1.49,3.22,2.88,4.85,4.33c1.63-1.5,3.27-2.92,4.81-4.44c1.82-1.81,3.16-4.07,1.18-6.29
		C324.37,326.49,322.26,328.02,320.35,329.82z"/>
	<path class="st0" d="M502.9,69.19c-0.62,0.61-1.32,1.78-2.33,2.19c-5.64,2.3-11.37,4.39-17.03,6.63c-2.08,0.82-3.43,0.18-4.18-1.74
		c-4.95-12.78-9.85-25.59-14.79-38.37c-0.86-2.23-0.02-3.58,2.02-4.37c5.58-2.17,11.16-4.33,16.76-6.45
		c1.91-0.72,3.43-0.25,4.22,1.8c4.93,12.79,9.86,25.59,14.79,38.38C502.53,67.65,502.6,68.08,502.9,69.19z M480.27,50.48
		c0.03-0.49,0.05-0.98,0.08-1.47c-1.31-1.01-2.71-2.91-3.92-2.8c-1.32,0.13-3.24,1.96-3.51,3.32c-0.37,1.9,1.28,3.67,3.43,3.34
		C477.74,52.66,478.97,51.31,480.27,50.48z M493.19,68.63c3.04-0.6,4.6-1.82,4.17-3.93c-0.27-1.34-1.95-2.4-2.99-3.59
		c-1.26,1.13-3.26,2.11-3.55,3.45C490.58,65.7,492.33,67.26,493.19,68.63z M487.54,41.5c-0.47-0.01-0.95-0.02-1.42-0.03
		c-0.98,1.34-2.84,2.77-2.71,3.99c0.14,1.28,2.06,3.04,3.43,3.29c0.91,0.16,3.08-1.92,3.14-3.08
		C490.05,44.33,488.43,42.9,487.54,41.5z M486.93,36.36c-0.77-2.97-2.06-4.23-4.17-4.12c-2.16,0.11-3.62,1.8-3.18,3.72
		c0.29,1.27,2.18,2.97,3.4,3.01C484.27,39.01,485.61,37.31,486.93,36.36z M476.48,40.46c0-0.53-0.01-1.06-0.01-1.59
		c-1.35-0.89-2.64-2.37-4.07-2.52c-2.06-0.22-3.67,1.52-3.17,3.54c0.32,1.29,2.08,3.03,3.27,3.08
		C473.78,43.03,475.15,41.37,476.48,40.46z M486.48,53.88c-0.03,0.54-0.07,1.07-0.1,1.61c1.29,0.97,2.68,2.79,3.86,2.67
		c1.33-0.13,2.49-2.02,3.72-3.15c-1.09-1.15-2.07-3.06-3.31-3.24C489.38,51.59,487.88,53.1,486.48,53.88z M476.09,57.8
		c-0.05,0.53-0.11,1.05-0.16,1.58c1.25,1,2.48,2.73,3.77,2.77c1.2,0.04,3.12-1.5,3.53-2.74c0.64-1.93-0.74-3.81-2.86-3.72
		C478.91,55.74,477.52,57.05,476.09,57.8z M487.07,68.82c0.01-2.47-1.49-3.81-3.44-3.42c-1.26,0.25-2.84,1.89-3.16,3.19
		c-0.51,2.04,0.88,3.48,3.15,3.49C485.83,72.1,486.96,70.87,487.07,68.82z"/>
	<path class="st0" d="M467.59,374.37c-0.61,0.55-1.36,1.67-2.39,2.09c-5.64,2.31-11.36,4.42-17.03,6.65
		c-2.17,0.86-3.37-0.23-4.07-2.02c-4.93-12.68-9.81-25.37-14.68-38.06c-0.85-2.22-0.18-3.74,2.15-4.6
		c5.51-2.05,10.98-4.18,16.45-6.31c2.13-0.83,3.58-0.24,4.41,1.91c4.94,12.78,9.9,25.57,14.83,38.35
		C467.42,372.77,467.42,373.23,467.59,374.37z M433.36,343.98c0.01,0.53,0.02,1.06,0.03,1.59c1.36,0.87,2.78,2.48,4.07,2.39
		c1.17-0.09,2.86-1.88,3.16-3.19c0.47-2.07-1.17-3.76-3.24-3.47C435.94,341.5,434.69,343.04,433.36,343.98z M455.49,351.2
		c-0.01-0.53-0.01-1.06-0.02-1.59c-1.37-0.88-2.8-2.53-4.08-2.42c-1.2,0.1-2.89,1.92-3.19,3.25c-0.47,2.07,1.24,3.72,3.27,3.45
		C452.92,353.69,454.16,352.15,455.49,351.2z M459.14,360.82c0.02-0.5,0.04-0.99,0.06-1.49c-1.33-0.99-2.57-2.61-4.01-2.81
		c-1.93-0.27-3.82,1.23-3.36,3.38c0.28,1.31,1.96,3.13,3.13,3.22C456.28,363.23,457.74,361.66,459.14,360.82z M437.22,353.66
		c-0.02,0.48-0.03,0.97-0.05,1.45c1.3,0.96,2.5,2.46,3.93,2.74c2.15,0.41,3.39-1.2,3.4-3.38c0.01-2.24-1.45-3.67-3.46-3.4
		C439.68,351.25,438.49,352.75,437.22,353.66z M454.98,368.78c0.68,2.95,1.77,4.65,3.92,4.18c1.32-0.29,3.02-1.83,3.34-3.1
		c0.51-2.03-1.13-3.77-3.17-3.59C457.64,366.38,456.34,367.89,454.98,368.78z M448.74,364.81c0.01-0.51,0.03-1.03,0.04-1.54
		c-1.34-0.92-2.71-2.58-4.02-2.54c-1.21,0.04-3.04,1.73-3.37,3.01c-0.53,2.06,1.14,3.71,3.19,3.49
		C446.04,367.08,447.36,365.66,448.74,364.81z M448.31,336.64c-0.51,0.02-1.02,0.05-1.53,0.07c-0.79,1.41-2.3,2.9-2.17,4.22
		c0.12,1.19,1.9,2.89,3.18,3.14c2.13,0.41,3.63-1.38,3.26-3.42C450.78,339.19,449.27,337.96,448.31,336.64z M449.21,377.63
		c0.95-1.31,2.79-2.75,2.62-3.89c-0.2-1.32-2.04-3.02-3.42-3.31c-0.86-0.18-2.85,1.79-3.18,3.09
		C444.69,375.59,446.23,376.87,449.21,377.63z"/>
	<path class="st0" d="M161.3,71.25c-0.61-0.63-1.78-1.35-2.19-2.38c-5.17-12.7-10.22-25.44-15.31-38.17
		c-0.81-2.02-0.12-3.44,1.79-4.21c5.64-2.29,11.31-4.53,16.98-6.76c1.98-0.78,3.47-0.1,4.24,1.83c5.09,12.72,10.2,25.44,15.11,38.24
		c0.38,1-0.35,3.38-1.17,3.75c-5.97,2.64-12.09,4.92-18.17,7.32C162.37,70.95,162.15,71,161.3,71.25z M174.51,53.17
		c-0.52,0-1.03,0-1.55,0c-0.91,1.36-2.36,2.63-2.6,4.1c-0.35,2.19,1.5,3.66,3.46,3.24c1.31-0.28,3.14-2.05,3.21-3.24
		C177.1,55.95,175.42,54.54,174.51,53.17z M169.62,42.64c-1.52,2.2-3.03,3.43-3.17,4.81c-0.22,2.2,1.45,3.95,3.69,3.38
		c1.28-0.32,3.04-2.25,2.99-3.39C173.06,46.08,171.3,44.8,169.62,42.64z M162.63,65.32c0.51,0,1.03,0,1.54,0.01
		c0.89-1.35,2.61-2.83,2.43-4.01c-0.2-1.32-2-3.12-3.36-3.37c-1.89-0.35-3.66,1.34-3.32,3.39C160.17,62.78,161.68,64,162.63,65.32z
		 M159.66,43.08c0-0.5,0.01-1,0.01-1.49c-1.23-0.94-2.36-2.46-3.7-2.67c-1.94-0.32-3.59,0.88-3.65,3.19
		c-0.05,2.18,1.18,3.8,3.28,3.54C157.04,45.45,158.32,43.97,159.66,43.08z M158.76,55.57c2.98-0.73,4.22-1.89,4.14-4.11
		c-0.07-2.3-1.75-3.58-3.66-3.13c-1.29,0.31-3.05,2.11-3.09,3.3C156.1,52.91,157.81,54.25,158.76,55.57z M161.74,32.41
		c0.46-0.02,0.93-0.04,1.39-0.06c0.83-1.41,2.4-2.89,2.28-4.22c-0.11-1.17-2.32-3.17-3.23-2.99c-1.36,0.28-3.24,2.11-3.31,3.37
		C158.8,29.76,160.7,31.11,161.74,32.41z M152.53,28.48c-0.47,0-0.94,0-1.41,0c-0.9,1.37-2.53,2.76-2.5,4.12
		c0.03,1.15,1.79,2.93,3.07,3.24c2.06,0.5,3.74-1.14,3.45-3.21C154.94,31.14,153.45,29.85,152.53,28.48z M166.98,34.17
		c-0.54-0.01-1.07-0.02-1.61-0.03c-0.95,1.34-2.78,2.81-2.6,3.98c0.21,1.34,2.05,3.04,3.46,3.36c0.82,0.19,2.97-1.96,3.08-3.18
		C169.43,37,167.83,35.55,166.98,34.17z"/>
	<path class="st0" d="M141.26,365.44c-0.64,0.6-1.36,1.78-2.4,2.2c-5.53,2.26-11.14,4.34-16.73,6.48c-2.26,0.87-3.68,0.17-4.57-2.15
		c-4.78-12.5-9.65-24.97-14.47-37.46c-0.95-2.47-0.32-4.08,2.36-5.04c5.43-1.94,10.78-4.07,16.15-6.19
		c1.96-0.77,3.47-0.41,4.25,1.59c5,12.87,9.96,25.77,14.93,38.66C140.93,363.93,140.99,364.37,141.26,365.44z M133.27,356.84
		c-0.52,0-1.05,0-1.57-0.01c-0.89,1.37-2.54,2.78-2.46,4.09c0.07,1.19,1.86,2.95,3.17,3.25c2.05,0.47,3.76-1.2,3.51-3.25
		C135.73,359.48,134.2,358.2,133.27,356.84z M128.16,355.16c0.46-0.01,0.92-0.01,1.39-0.02c0.88-1.4,2.48-2.84,2.42-4.19
		c-0.06-1.15-1.89-2.87-3.2-3.17c-2.1-0.47-3.73,1.27-3.41,3.3C125.59,352.55,127.17,353.81,128.16,355.16z M126.15,365.4
		c-0.02-0.49-0.04-0.99-0.06-1.48c-1.38-0.86-2.71-2.28-4.16-2.43c-2-0.2-3.44,1.32-3.33,3.5c0.11,2.15,1.61,3.62,3.61,3.23
		C123.65,367.94,124.85,366.38,126.15,365.4z M122.28,355.89c0-0.48,0.01-0.97,0.01-1.45c-1.23-0.95-2.38-2.53-3.72-2.71
		c-2.16-0.3-4.02,1.26-3.58,3.52c0.25,1.29,2.06,3.1,3.24,3.16C119.54,358.48,120.93,356.81,122.28,355.89z M115.93,341.89
		c-0.49-0.07-0.98-0.13-1.47-0.2c-1.05,1.12-2.66,2.07-3.04,3.38c-0.65,2.22,0.84,4.09,3.04,3.97c1.29-0.07,3.31-1.68,3.51-2.85
		C118.19,344.91,116.69,343.34,115.93,341.89z M120.58,335.79c0.52,0.01,1.04,0.01,1.56,0.02c0.92-1.33,2.46-2.59,2.62-4.01
		c0.22-2.02-1.46-3.66-3.52-3.16c-1.29,0.32-3.08,2.01-3.13,3.14C118.05,333.08,119.68,334.45,120.58,335.79z M110.42,331.88
		c-1.01,1.28-2.58,2.44-2.89,3.88c-0.47,2.16,1.33,3.71,3.29,3.44c1.32-0.18,3.07-1.74,3.45-3.03
		C114.89,334.1,113.25,332.87,110.42,331.88z M124.01,345.55c0.5,0.04,1,0.08,1.5,0.12c1.06-1.25,3.02-2.56,2.94-3.75
		c-0.08-1.29-1.85-3.15-3.23-3.53c-2.03-0.55-3.61,1.15-3.39,3.23C121.98,343,123.24,344.25,124.01,345.55z"/>
	<path class="st0" d="M139.19,428.47c-5.46,4.29-11.08,8.71-16.71,13.14c-0.23-0.3-0.46-0.61-0.68-0.91
		c5.53-4.52,11.06-9.04,15.64-12.79c0-3.01,0.01-5.02,0-7.04c0-0.65,0.14-1.38-0.09-1.94c-1.77-4.29,0.08-6.72,3.56-9.38
		c9.68-7.39,18.98-15.26,28.1-22.67c-0.37-1.62-0.67-2.93-0.97-4.23c0.42-0.19,0.84-0.37,1.26-0.56c2.3,2.65,4.59,5.3,6.98,8.05
		c2.81-2.28,5.41-4.39,8.16-6.63c-0.85-1.22-1.68-2.21-2.26-3.33c-0.47-0.91-0.61-1.99-0.9-2.99c1.05,0.5,2.37,0.75,3.09,1.54
		c2.33,2.59,4.44,5.37,6.63,8.08c1.98,2.46,4.01,4.89,5.86,7.44c0.44,0.6,0.25,1.66,0.34,2.52c-0.83-0.27-1.85-0.33-2.44-0.87
		c-1.02-0.94-1.77-2.17-2.92-3.64c-2.8,2.27-5.46,4.41-8.36,6.76c1.54,2,3.04,3.71,4.25,5.61c0.66,1.05,0.83,2.41,1.23,3.62
		c-1.12-0.37-2.24-0.73-3.97-1.3c-2.75,2.19-6.06,4.79-9.33,7.43c-7.04,5.68-14.1,11.32-21.05,17.1c-1.53,1.27-2.72,1.57-4.63,0.81
		c-2.13-0.85-4.55-0.94-6.76-1.62C141.92,430.29,140.81,429.38,139.19,428.47z M166.28,392.01c-2.59,2.1-5.17,4.21-7.76,6.31
		c0,0,0.01,0,0.01,0c-2.05,1.66-4.1,3.33-6.15,4.99l0.09-0.09c-2.2,1.75-4.41,3.51-6.61,5.26c-1.45,1.3-3.08,2.47-4.29,3.97
		c-0.56,0.69-0.82,2.41-0.36,3.02c3.29,4.31,6.76,8.5,10.32,12.59c0.47,0.54,2.03,0.73,2.7,0.36c1.69-0.92,3.16-2.25,4.73-3.41
		c8.13-6.41,16.25-12.83,24.56-19.39c-4.72-5.84-9.07-11.23-13.65-16.89c-1.35,1.24-2.52,2.3-3.69,3.37
		C166.18,392.1,166.28,392.01,166.28,392.01z"/>
	<path class="st0" d="M511.11,415.96c-8.29,6.68-17.11,13.78-25.93,20.88c-0.51,0.41-1.1,0.75-1.52,1.24
		c-3.01,3.54-6.23,4.26-10.48,1.79c-2.06-1.2-4.84-1.14-8.42-1.89c-4.58,3.6-10.24,8.05-15.9,12.51c-0.23-0.29-0.46-0.58-0.69-0.87
		c5.53-4.52,11.06-9.04,15.96-13.05c-0.27-4.04-0.1-7.53-0.85-10.82c-0.66-2.9,0.34-4.39,2.4-6.03c9.2-7.33,18.31-14.76,27.45-22.16
		c0.83-0.67,1.62-1.41,2.54-2.21c-0.33-0.61-0.7-1.05-0.79-1.53c-0.14-0.73-0.08-1.5-0.11-2.25c0.76,0.23,1.78,0.22,2.24,0.73
		c1.9,2.06,3.64,4.27,5.62,6.65c2.84-2.27,5.45-4.36,8.3-6.64c-1.1-1.44-2.18-2.65-2.99-4.02c-0.35-0.59-0.13-1.51-0.16-2.29
		c0.73,0.19,1.75,0.14,2.16,0.61c3.18,3.73,6.24,7.55,9.34,11.36c1.24,1.52,2.59,2.97,3.63,4.62c0.52,0.82,0.45,2.01,0.65,3.03
		c-0.95-0.49-2-0.85-2.81-1.51c-0.91-0.74-1.59-1.76-2.63-2.95c-2.74,2.21-5.4,4.36-8.29,6.7c1.55,1.98,3.05,3.67,4.28,5.53
		c0.7,1.05,0.98,2.39,1.44,3.6C514.34,416.71,513.14,416.43,511.11,415.96z M471.95,417.59c-1.24,1.05-2.42,2.17-3.72,3.12
		c-1.77,1.29-2.1,2.47-0.47,4.23c2.5,2.7,4.79,5.6,7.14,8.43c4.3,5.19,4.29,5.2,9.88,1.07c8.32-6.63,16.64-13.26,25.16-20.05
		c-4.71-5.81-9.13-11.24-13.71-16.88C487.86,404.43,479.9,411.01,471.95,417.59z"/>
	<path class="st0" d="M500.68,132.38c-5.47,4.33-11.04,8.73-16.61,13.13c-0.24-0.31-0.48-0.62-0.73-0.93
		c5.5-4.48,10.99-8.96,16.17-13.17c-0.5-4.66-1.06-9-1.33-13.36c-0.05-0.78,1.01-1.8,1.78-2.44c10.19-8.33,20.42-16.62,30.59-24.87
		c0.06-0.3,0.18-0.52,0.14-0.71c-0.21-1.15-0.46-2.29-0.7-3.43c1.11,0.63,2.42,1.06,3.28,1.94c1.58,1.6,2.89,3.46,4.51,5.45
		c2.84-2.28,5.45-4.37,8.32-6.67c-1.08-1.43-2.14-2.63-2.93-3.98c-0.35-0.6-0.15-1.52-0.21-2.3c0.73,0.18,1.75,0.12,2.14,0.59
		c4.6,5.51,9.13,11.09,13.6,16.71c0.39,0.49,0.14,1.48,0.18,2.24c-0.76-0.18-1.75-0.11-2.25-0.58c-1.18-1.08-2.13-2.42-3.32-3.84
		c-2.83,2.3-5.49,4.46-8.3,6.75c1.6,2.03,3.12,3.74,4.37,5.63c0.68,1.03,0.91,2.36,1.35,3.56c-1.2-0.31-2.41-0.63-4.43-1.15
		c-4.79,3.87-10.26,8.29-15.74,12.71c-4.91,3.97-9.75,8.03-14.79,11.83c-0.96,0.73-2.71,0.76-4.02,0.6
		c-2.39-0.29-4.77-0.85-7.08-1.55C503.39,134.15,502.26,133.25,500.68,132.38z M527.17,96.55c-2.04,1.61-4.08,3.23-6.12,4.84
		c0,0,0.09-0.09,0.09-0.09c-2.24,1.83-4.48,3.67-6.71,5.5c-0.1,0.15-0.21,0.3-0.33,0.43c-2.34,1.9-4.69,3.8-7.03,5.7
		c-1.34,1.1-2.84,2.06-3.94,3.36c-0.56,0.67-0.87,2.34-0.44,2.91c3.42,4.47,7,8.82,10.67,13.09c0.4,0.46,1.88,0.57,2.45,0.2
		c1.81-1.16,3.43-2.61,5.12-3.96c4.88-3.8,9.78-7.58,14.62-11.42c3.12-2.48,6.17-5.06,9.48-7.79c-4.62-5.7-9.01-11.13-13.6-16.79
		c-1.66,1.57-2.98,2.82-4.3,4.08C527.12,96.6,527.17,96.55,527.17,96.55z"/>
	<path class="st0" d="M266.56,207.29c0.62,0.48,2.02,1.26,2.99,2.42c1.1,1.32,1.88,2.93,2.68,4.48c1.1,2.12,2.42,3.46,5.08,3.89
		c1.63,0.26,3.45,1.94,4.39,3.47c8.36,13.65,16.52,27.41,24.8,41.11c1.63,2.69,2.69,5.39,0.72,8.22c-2.16,3.11-5.34,5.14-9.08,4.93
		c-1.83-0.1-4.24-1.63-5.24-3.23c-8.72-14.07-17.27-28.25-25.59-42.56c-1.04-1.8-0.5-4.51-0.71-6.8c-0.1-1.11,0.06-2.35-0.41-3.28
		c-1.17-2.33-2.78-4.44-3.92-6.78C260.82,210.14,262.49,207.39,266.56,207.29z M269.59,217.39c-0.19,0.14-0.38,0.28-0.58,0.42
		c0.46,0.88,1.11,1.72,1.34,2.66c0.23,0.94,0.45,2.28-0.03,2.92c-1.55,2.05-1.01,3.86,0.11,5.73c8.17,13.62,16.33,27.24,24.52,40.84
		c1.85,3.07,3.42,3.43,6.45,1.71c4.48-2.55,4.68-4.55,1.23-8.57c-1.71,0.2-3.17,0.37-4.62,0.53c0.88-1.21,1.75-2.41,3.12-4.29
		c-0.99-0.11-1.84-0.29-2.69-0.27c-0.98,0.03-1.95,0.24-2.93,0.37c0.61-0.86,1.2-1.74,1.85-2.56c0.25-0.32,0.67-0.51,1.08-0.81
		c-0.51-1.93-1.35-2.7-3.18-1.37c-0.79,0.57-1.62,1.14-2.53,1.46c-0.58,0.2-1.33-0.05-2-0.11c0.27-0.63,0.37-1.48,0.84-1.84
		c1.35-1.02,2.85-1.83,5.02-3.18c-1.46-0.52-2.13-0.97-2.8-0.96c-1.22,0.02-2.43,0.3-3.65,0.47c0.88-0.96,1.77-1.92,2.64-2.89
		c0.14-0.16,0.23-0.36,0.36-0.57c-0.79-2.62-2.15-0.98-3.45-0.53c-0.58,0.2-1.34-0.1-2.01-0.17c0.28-0.6,0.45-1.31,0.88-1.76
		c0.58-0.6,1.37-1,2.21-1.58c-0.52-0.81-0.95-1.49-1.32-2.08c-2.24,0.98-4.25,1.87-6.27,2.75c-0.24-0.43-0.49-0.87-0.73-1.3
		c1.32-0.93,2.69-1.79,3.94-2.81c0.56-0.46,0.87-1.22,1.29-1.84c-0.82-0.02-1.64-0.11-2.45-0.05c-0.95,0.08-1.89,0.29-2.84,0.44
		c3.01-3.88,3.01-3.88,1.84-5.44c-0.39,0.18-0.76,0.46-1.17,0.54c-1.03,0.18-2.07,0.27-3.11,0.39c0.56-0.76,1.26-1.45,1.66-2.29
		c0.43-0.9,0.59-1.93,0.92-3.13c-3.23,0.2-4.67,3.4-8.24,1.73c2.33-1.68,4.11-2.97,6.68-4.83c-1.97-1.57-3.66-4-5.28-3.95
		c-2.6,0.08-3.75-0.76-4.78-2.75C270.68,217.97,270.04,217.73,269.59,217.39z"/>
	<path class="st0" d="M226.37,102.89c-8.09,6.7-16.72,13.86-25.36,21.01c-0.67,0.56-1.44,1.03-2,1.67
		c-2.86,3.26-6.01,4.35-9.89,1.67c-0.59-0.41-1.43-0.47-2.17-0.62c-1.82-0.38-3.65-0.72-5.47-1.08c-0.01-0.33-0.02-0.66-0.04-0.99
		c-5.5,4.44-10.99,8.87-16.49,13.31c-0.24-0.3-0.48-0.6-0.72-0.9c5.36-4.5,10.73-9,15.16-12.71c0-2.95,0.02-4.95-0.01-6.94
		c-0.01-0.76,0.06-1.6-0.23-2.26c-1.82-4.14,0.09-6.58,3.3-9.13c9.54-7.57,18.83-15.45,28.32-23.29c-0.33-0.63-0.7-1.06-0.79-1.55
		c-0.15-0.76-0.12-1.56-0.16-2.34c0.83,0.3,1.9,0.36,2.44,0.93c1.86,1.96,3.54,4.09,5.44,6.34c2.84-2.34,5.49-4.53,8.22-6.79
		c-1.12-1.47-2.14-2.6-2.91-3.89c-0.37-0.61-0.28-1.5-0.39-2.26c0.83,0.19,1.95,0.11,2.43,0.63c2.13,2.32,4.08,4.82,6.09,7.25
		c2.44,2.93,4.94,5.81,7.27,8.82c0.45,0.58,0.27,1.66,0.38,2.51c-0.81-0.22-1.82-0.22-2.4-0.72c-1.12-0.96-2-2.2-3.14-3.52
		c-2.83,2.32-5.41,4.45-8.25,6.78c1.55,1.91,3.14,3.68,4.49,5.61c0.67,0.96,0.92,2.22,1.36,3.35
		C229.66,103.53,228.46,103.3,226.37,102.89z M207.97,88.12c-2.35,1.81-4.7,3.62-7.04,5.44l0.08-0.09
		c-4.51,3.92-9.01,7.83-13.52,11.75c-1.02,0.8-1.99,1.67-3.07,2.37c-2.75,1.79-2.36,3.55-0.37,5.76c2.97,3.29,5.78,6.72,8.49,10.22
		c1.6,2.07,3.03,2.04,4.85,0.41c1.2-1.07,2.56-1.97,3.85-2.95c7.95-6.55,15.9-13.09,23.97-19.74c-4.69-5.63-9.17-11.02-13.94-16.75
		c-1.32,1.42-2.32,2.5-3.33,3.58C207.95,88.13,207.97,88.12,207.97,88.12z"/>
	<path class="st0" d="M79.82,520.33c-2.06-0.63-3.68-1.12-5.57-1.69c1.11-3.66,2.22-6.94,3.04-10.29c0.26-1.06,0.06-2.53-0.52-3.43
		c-1.79-2.78-2.2-5.59-1.2-8.71c2.97-9.21,5.87-18.44,8.88-27.63c1.68-5.16,6-7.31,11.04-5.65c4.46,1.47,6.68,5.98,5.16,10.82
		c-2.97,9.43-5.83,18.91-9.23,28.2c-0.82,2.23-3.29,4.2-5.48,5.47c-1.55,0.9-2.51,1.64-3,3.32
		C82.04,513.84,80.95,516.9,79.82,520.33z M97.56,470.86c-0.94-1.28-1.81-2.56-2.78-3.75c-0.3-0.37-0.94-0.79-1.3-0.7
		c-1.81,0.42-3.57,1.01-5.29,1.52c0.88,0.39,1.95,0.86,3.22,1.43c-0.58,1.81-1.12,3.51-1.68,5.25c-1.42-0.23-2.52-0.42-4.25-0.7
		c4.24,2.63,4.26,2.72,1.81,7.37c-1.13-0.2-2.25-0.39-3.36-0.59c-0.03,0.2-0.07,0.41-0.1,0.61c1.04,0.46,2.08,0.93,3.35,1.5
		c-0.62,1.83-1.2,3.53-1.79,5.26c-1.4-0.26-2.58-0.48-3.76-0.71c-0.05,0.18-0.11,0.36-0.16,0.53c1.13,0.5,2.26,1.01,3.55,1.58
		c-0.61,1.85-1.17,3.56-1.72,5.23c-1.38-0.19-2.47-0.35-3.56-0.5c-0.03,0.15-0.07,0.29-0.1,0.44c0.94,0.47,1.88,0.94,3.2,1.6
		c-1.78,5.58-3.65,11.11-5.26,16.71c-0.41,1.43,0.02,3.1,0.06,4.65c0.93-1.26,2.23-2.38,2.74-3.8c1.97-5.47,3.68-11.03,5.46-16.47
		c1.37,0.11,2.31,0.19,3.24,0.26c0.02-0.16,0.04-0.31,0.05-0.47c-0.92-0.47-1.83-0.93-2.84-1.45c0.61-1.8,1.17-3.42,1.72-5.03
		c1.16,0.07,2.17,0.13,3.19,0.2c0.03-0.14,0.07-0.27,0.1-0.41c-0.91-0.45-1.82-0.9-2.86-1.41c0.64-1.83,1.23-3.53,1.8-5.16
		c1.22,0.11,2.15,0.2,4.01,0.37c-1.76-1.01-2.65-1.51-3.6-2.05c0.61-1.82,1.16-3.44,1.7-5.04c1.24,0.12,2.19,0.22,3.98,0.4
		c-1.67-0.99-2.55-1.51-3.54-2.1c0.6-1.78,1.15-3.39,1.73-5.08C95.75,470.56,96.75,470.73,97.56,470.86z"/>
	<path class="st0" d="M122.86,217.35c-1.87-0.58-3.49-1.09-5.58-1.74c1-3.28,1.93-6.45,2.94-9.6c0.51-1.6,0.76-2.88-0.6-4.42
		c-1.98-2.23-2.31-5.01-1.38-7.97c2.94-9.32,5.76-18.68,8.68-28.01c1.63-5.19,5.72-7.47,10.53-6.01c5.02,1.52,7.21,5.71,5.62,11.05
		c-2.73,9.16-5.54,18.29-8.35,27.43c-0.94,3.06-2.68,5.31-5.9,6.45c-1.17,0.42-2.35,1.8-2.83,3.02
		C124.77,210.65,123.93,213.91,122.86,217.35z M122.38,191.14c-0.04,0.15-0.08,0.3-0.12,0.45c1.03,0.48,2.07,0.96,3.38,1.56
		c-1.87,6.05-3.79,12.01-5.5,18.04c-0.28,1,0.36,2.26,0.57,3.4c0.79-0.85,1.96-1.58,2.3-2.58c1.96-5.85,3.72-11.77,5.58-17.78
		c1.11,0,2.08,0,3.7,0c-4.9-1.92-1.94-4.45-1.56-6.78c1.15,0.1,2.12,0.19,3.09,0.27c-4.4-1.99-1.57-4.56-0.95-6.94
		c1.17,0.06,2.13,0.1,3.08,0.14c-4.6-1.84-1.45-4.45-1.07-6.86c1.12,0,2.07,0,3.7,0c-1.47-0.8-2.29-1.25-3.24-1.77
		c0.59-1.79,1.15-3.48,1.67-5.05c1.27,0.11,2.2,0.19,2.77,0.24c-0.8-1.14-1.55-2.4-2.51-3.46c-0.39-0.44-1.3-0.72-1.88-0.61
		c-1.59,0.31-3.13,0.87-4.63,1.32c0.74,0.36,1.82,0.88,3.14,1.52c-0.59,1.81-1.15,3.53-1.69,5.2c-1.35-0.21-2.39-0.38-3.43-0.54
		c3.47,2.23,3.55,2.71,1.07,7.19c-1.13-0.16-2.3-0.32-3.46-0.48c-0.03,0.16-0.07,0.32-0.1,0.48c1.12,0.53,2.23,1.06,3.5,1.67
		c-0.6,1.79-1.14,3.41-1.69,5.09c-1.41-0.22-2.63-0.4-3.86-0.59c-0.06,0.17-0.11,0.33-0.17,0.5c1.16,0.55,2.32,1.1,3.63,1.72
		c-0.58,1.81-1.13,3.52-1.66,5.18C124.62,191.45,123.5,191.29,122.38,191.14z"/>
	<path class="st0" d="M441.48,224.18c-1.96-0.62-3.68-1.17-5.62-1.79c0.72-2.37,1.32-4.55,2.06-6.68c1.06-3.03,2.47-5.8-0.43-8.93
		c-1.05-1.14-0.94-4.05-0.39-5.86c2.89-9.68,5.99-19.31,9.2-28.89c1.64-4.9,5.91-6.88,10.62-5.31c4.7,1.56,6.89,5.67,5.35,10.63
		c-3,9.65-5.99,19.32-9.42,28.82c-0.74,2.04-3.03,3.97-5.09,4.96c-1.77,0.86-2.73,1.68-3.24,3.49
		C443.63,217.75,442.56,220.82,441.48,224.18z M444.86,198.53c-1.45-0.23-2.66-0.43-3.87-0.62c-0.05,0.15-0.1,0.31-0.16,0.46
		c1.18,0.59,2.35,1.17,3.62,1.8c-0.2,0.58-0.34,0.98-0.47,1.38c-1.79,5.59-3.65,11.16-5.32,16.78c-0.27,0.9,0.28,2.04,0.45,3.07
		c0.83-0.75,1.71-1.45,2.47-2.26c0.26-0.28,0.21-0.83,0.34-1.24c1.85-5.64,3.7-11.28,5.53-16.83c1.31,0.16,2.21,0.28,3.55,0.45
		c-3.85-2.86-3.23-1.98-1.08-7.03c0.93,0.06,1.86,0.13,3.5,0.24c-1.54-0.98-2.39-1.52-3.32-2.12c0.59-1.72,1.11-3.24,1.65-4.83
		c1.26,0.1,2.31,0.18,4.24,0.33c-1.81-1.01-2.77-1.54-3.77-2.1c0.59-1.76,1.11-3.29,1.65-4.9c1.08,0,2.06,0,3.84,0
		c-5.1-2.01-1.94-4.5-1.59-6.8c1.07,0.06,1.95,0.11,2.47,0.14c-0.66-1.1-1.21-2.25-1.99-3.2c-0.39-0.48-1.27-0.94-1.84-0.84
		c-1.7,0.29-3.34,0.86-4.99,1.31c0.94,0.45,2.04,0.97,3.31,1.58c-0.69,1.89-1.3,3.57-1.9,5.21c-1.46-0.32-2.57-0.56-3.68-0.8
		c-0.07,0.18-0.13,0.36-0.2,0.54c1.11,0.52,2.22,1.05,3.57,1.69c-0.57,1.81-1.1,3.51-1.62,5.17c-1.47-0.19-2.6-0.34-3.74-0.49
		c-0.03,0.17-0.06,0.34-0.09,0.51c1.02,0.48,2.04,0.96,3.28,1.54c-0.62,1.88-1.18,3.56-1.72,5.2c-1.48-0.27-2.61-0.48-3.73-0.69
		c-0.04,0.22-0.08,0.44-0.13,0.66c1.12,0.5,2.24,1,3.49,1.55C445.99,195.26,445.43,196.87,444.86,198.53z"/>
	<path class="st0" d="M406.24,529.15c-1.96-0.64-3.68-1.19-5.61-1.82c1.11-3.5,2.28-6.74,3.1-10.07c0.28-1.14-0.01-2.7-0.63-3.71
		c-1.57-2.57-2.23-5.08-1.25-8.04c3.08-9.39,6.03-18.83,9.12-28.22c1.61-4.88,5.89-7.12,10.48-5.73c4.84,1.47,7.14,5.72,5.57,10.81
		c-2.84,9.24-5.83,18.43-8.76,27.64c-1.05,3.32-2.91,5.74-6.56,6.57c-0.8,0.18-1.65,1.3-1.97,2.18
		C408.48,522.1,407.44,525.51,406.24,529.15z M411.95,496.77c-1.37-0.16-2.55-0.3-4.19-0.49c4.05,2.52,4.05,2.52,1.65,7.16
		c-1.15-0.17-2.34-0.36-3.52-0.54c-0.05,0.18-0.11,0.36-0.16,0.54c1.11,0.48,2.23,0.97,3.58,1.55c-1.32,4.06-2.62,7.96-3.86,11.87
		c-0.79,2.48-1.58,4.98-2.2,7.5c-0.14,0.55,0.44,1.27,0.68,1.91c0.69-0.34,1.65-0.51,2.02-1.07c0.58-0.88,0.8-2.01,1.13-3.04
		c1.73-5.36,3.45-10.73,5.16-16.07c1.22,0.1,2.16,0.18,3.75,0.3c-3.6-2.16-3.67-2.92-1.2-7.03c0.98,0.13,1.95,0.26,2.92,0.39
		c0.04-0.14,0.08-0.28,0.12-0.42c-0.95-0.55-1.9-1.11-2.94-1.71c0.64-1.79,1.21-3.39,1.77-4.97c1.22,0.08,2.18,0.15,3.65,0.25
		c-1.38-0.85-2.26-1.38-3.18-1.95c0.57-1.82,1.08-3.45,1.57-4.99c1.26,0.09,2.17,0.15,4.02,0.28c-1.64-0.88-2.43-1.31-3.42-1.84
		c0.6-1.83,1.16-3.55,1.71-5.22c1.19,0.15,2.12,0.26,2.71,0.33c-0.83-1.24-1.52-2.41-2.37-3.45c-0.34-0.42-1.11-0.82-1.59-0.73
		c-1.67,0.33-3.29,0.89-4.92,1.36c0.89,0.48,1.88,1.03,3.04,1.66c-0.6,1.76-1.15,3.36-1.7,4.96c-1.45-0.2-2.62-0.37-3.8-0.53
		c-0.04,0.18-0.08,0.37-0.12,0.55c1.12,0.51,2.24,1.01,3.53,1.6c-0.65,1.82-1.25,3.51-1.83,5.13c-1.36-0.17-2.42-0.3-3.47-0.43
		c-0.03,0.17-0.06,0.33-0.1,0.5c1.04,0.46,2.07,0.92,3.2,1.43C413.04,493.28,412.56,494.81,411.95,496.77z"/>
	<path class="st0" d="M224.29,23.13c6.13-6.6,12.05-12.97,18.2-19.59c3.98,4.63,9.06,7.68,9.75,14.01
		c0.58,5.31-1.83,10.51-6.5,13.27c-4.52,2.67-10.75,2.45-14.73-0.9C228.45,27.76,226.27,25.15,224.29,23.13z"/>
	<path class="st0" d="M185.52,267.48c1.53,6.05,5.12,10.64,8.98,15.15c3.58,4.18,3.88,9.53,1.3,13.65c-2.8,4.48-7.82,6.58-13,5.44
		c-4.76-1.04-8.34-4.93-9.06-9.99c-0.49-3.44,0.61-6.55,2.82-9.08C180.47,278.19,184.1,273.62,185.52,267.48z"/>
	<path class="st0" d="M503.78,274.75c1.24,6.44,4.77,11.06,8.53,15.65c3.85,4.71,3.8,10.38,0.32,14.67
		c-3.7,4.57-9.14,5.79-14.67,3.29c-6.69-3.02-8.67-11.6-4.02-17.69c1.85-2.42,4.07-4.58,5.68-7.14
		C501.2,281,502.22,278.11,503.78,274.75z"/>
	<path class="st0" d="M118.56,299.89c-5.04-1.57-10.08-3.13-15.12-4.7c-0.09,0.2-0.17,0.4-0.26,0.59
		c5.18,2.71,10.37,5.41,15.55,8.12c-22.68-6.51-43.19-18.93-66.63-23.9c-0.42,1.5-0.72,2.75-1.12,3.96
		c-1.48,4.45-4.33,6.39-8.85,6.07c-4.19-0.3-7.81-3.37-8.58-7.3c-0.71-3.6,2.26-7.12,6.67-7.09c3.31,0.02,6.68,0.77,9.92,1.6
		c6.72,1.71,13.37,3.68,20.31,4.9c-5.05-2.68-10.15-5.29-15.15-8.07c-4.17-2.32-8.82-4.3-10.93-8.93c-0.89-1.96-1.2-4.74-0.52-6.72
		c0.91-2.65,3.88-2.86,6.47-2.67c6.77,0.49,10.43,6.33,7.94,12.63c-0.48,1.21-1.14,2.34-1.91,3.88
		c19.84,11.18,41.65,17.85,62.48,26.73C118.74,299.29,118.65,299.59,118.56,299.89z M41.8,276.75c-0.13-0.18-0.27-0.36-0.4-0.54
		c-1.86,1.03-4.29,1.65-5.4,3.22c-0.87,1.23-0.72,3.94,0.05,5.43c1.75,3.38,5.25,3.9,8.74,3.68c2.86-0.18,5.59-3.22,5.52-6.27
		c-0.06-2.9-1.81-4.49-4.69-4.87C44.34,277.23,43.07,276.97,41.8,276.75z M58.43,265.1c-0.56-5.21-3.13-7.82-8.71-7.97
		c-1.5-0.04-3.73,0.75-4.38,1.88c-0.74,1.3-0.61,3.63,0.06,5.07c0.83,1.78,2.39,3.49,4.07,4.53c1.7,1.05,4.27,2.14,5.82,1.55
		C56.76,269.59,57.41,266.87,58.43,265.1z"/>
	<path class="st0" d="M374.38,264.98c2.78,2.14,3.53,4.71,2.25,8.29c-0.58,1.62-1.39,3.16-2.49,5.6
		c10.39,4.78,20.7,9.79,31.23,14.31c10.57,4.53,21.35,8.57,32.04,12.82c-0.12,0.33-0.23,0.66-0.35,0.98
		c-5.41-1.75-10.81-3.5-16.22-5.25c-0.08,0.19-0.16,0.37-0.25,0.56c5,2.68,9.99,5.36,14.99,8.04c-0.09,0.25-0.19,0.5-0.28,0.75
		c-3.43-1.22-6.93-2.29-10.29-3.7c-12.93-5.42-25.76-11.08-38.75-16.35c-5.26-2.13-10.82-3.5-16.29-5.22
		c-0.71,2.22-1.03,3.59-1.58,4.86c-1.72,4.03-3.96,5.47-8.03,5.3c-4.11-0.17-7.53-2.63-8.72-6.26c-1.38-4.2,1.58-8.26,6.6-8.16
		c3.62,0.07,7.25,1.12,10.8,2.05c6.14,1.61,12.21,3.46,18.58,4.51c-4.74-2.62-9.52-5.16-14.2-7.88c-2.9-1.7-5.66-3.65-8.43-5.55
		c-0.61-0.42-1.09-1.07-1.57-1.66c-2.54-3.13-3.05-7.13-1.2-9.29c1.97-2.31,6.31-2.75,9.64-0.86c0.98,0.55,1.74,1.48,2.6,2.23
		c-2.45-0.71-4.85-1.79-7.35-2.04c-3.34-0.33-6.06,3.12-4.35,5.67c1.96,2.93,4.71,5.5,7.58,7.58c2.08,1.51,4.6,0.39,4.81-2.31
		C375.41,271.03,374.69,267.99,374.38,264.98z M360.25,282.77c-3.23,0.09-5.95,0.11-6.99,3.25c-0.93,2.83-0.04,5.36,2.42,6.76
		c1.79,1.02,4.05,1.5,6.14,1.63c3.42,0.22,5.77-2.21,6.12-5.78c0.3-2.99-1.03-4.51-4.76-5.35
		C362.03,283.04,360.86,282.88,360.25,282.77z"/>
	<path class="st0" d="M305.64,152.25c-0.86,0.49-1.65,0.94-2.45,1.4c-2.75-5.1-8.26-5.27-11.3-0.44c-1.74,2.76-2.35,5.79-1.36,9.07
		c0.61,2.02,0.5,2.06-2.01,2.78c-2.06-4.41-1.41-8.72,0.9-12.73c1.08-1.87,1.08-3.32,0.05-5.08c-2.69-4.58-4.58-9.89-8.13-13.64
		c-5.03-5.31-11.75-8.24-19.43-6.46c-7.13,1.65-11.47,6.37-13.15,13.46c-2.25,9.53,2.66,21.24,11.05,26.38
		c0.94,0.58,2.12,0.78,3.52,1.28c-0.22,0.45-0.52,1.04-0.8,1.64c-0.26,0.55-0.5,1.12-0.74,1.65c-7.89-4.37-12.94-10.75-15.32-19.19
		c-2.89-10.24,0.63-20.55,8.68-25.65c7.74-4.9,18.91-3.68,26.44,3.72c3.47,3.41,5.88,7.98,8.47,12.21c1.78,2.9,3.02,5.36,7.44,4.33
		C301.13,146.14,303.69,149,305.64,152.25z"/>
	<path class="st0" d="M263.44,457.28c-1.01,0.65-1.72,1.1-2.58,1.65c-1.95-4.26-5.3-5.5-8.9-3.04c-4.64,3.16-5.05,8.02-3.35,13.1
		c-1.57,1.31-2.62,1.6-3.24-0.81c-0.99-3.84-0.34-7.42,1.66-10.67c1.27-2.06,1.13-3.68,0.01-5.71c-2.93-5.33-4.96-11.24-9.96-15.18
		c-4.97-3.91-10.51-6.34-16.98-4.81c-10.29,2.43-15.88,11.81-13.71,22.89c1.28,6.54,4.41,12.05,9.85,16.05
		c1.33,0.98,2.92,1.6,4.58,2.49c-0.45,0.82-1.04,1.9-1.66,3.04c-9.34-5.72-14.82-13.72-15.82-24.59
		c-1.53-16.59,13.77-27.78,29.03-21.14c5.75,2.5,10.33,6.44,13.12,12.21c0.8,1.67,1.71,3.28,2.47,4.97
		c1.45,3.21,3.13,5.33,7.41,4.39C258.99,451.32,261.21,454.28,263.44,457.28z"/>
	<path class="st0" d="M102.76,17.21c2,3.04,4.31,6.76,6.83,10.33c2.64,3.73,3.11,7.68,1.02,10.95c-2.19,3.41-5.93,5.02-9.82,4.22
		c-4.04-0.83-6.79-3.66-7.42-7.64c-0.53-3.31,1.11-5.83,2.92-8.35C98.63,23.42,100.85,20.02,102.76,17.21z"/>
	<path class="st0" d="M520.76,296.49c2.05,3.09,4.64,7.02,7.26,10.93c2.85,4.26,2.37,9.25-1.23,12.35
		c-3.77,3.25-9.14,3.15-12.71-0.22c-3.59-3.39-3.75-8.39-0.6-12.65C516.19,303.22,518.71,299.41,520.76,296.49z"/>
	<path class="st0" d="M203.07,288.69c2.09,3.07,4.53,6.83,7.14,10.47c3.02,4.22,2.75,9.55-0.82,12.72
		c-3.65,3.25-9.23,3.19-12.76-0.15c-3.68-3.48-3.86-8.36-0.71-12.64C198.58,295.48,201.02,291.69,203.07,288.69z"/>
	<path class="st0" d="M120.4,265.38c-3.79-1.62-7.58-3.23-11.37-4.85c-10.94-4.97-22.02-9.51-33.9-11.87
		c-8.87-1.76-17.5-4.32-24.93-9.8c-1.11-0.82-1.94-2.02-2.9-3.04c0.16-0.35,0.33-0.7,0.49-1.05c2.31,0.16,4.66,0.07,6.91,0.51
		c8.55,1.68,16.01,5.9,23.49,10.16c4.39,2.49,9.1,4.42,13.66,6.6c9.26,3.68,18.51,7.37,27.77,11.05c5.08,1.88,10.15,3.76,15.23,5.64
		c-0.36,0.75-0.72,1.49-1.08,2.24C129.33,269.11,124.86,267.25,120.4,265.38z"/>
	<path class="st0" d="M408.49,258.15c5.54,2.17,11.09,4.32,16.61,6.53c4.02,1.61,8,3.3,11.99,4.96c2.78,1.07,5.58,2.1,8.32,3.24
		c2.64,1.1,5.63,1.6,7.73,3.67c-0.11,0.3-0.22,0.59-0.33,0.89c-0.81-0.04-1.62-0.07-2.42-0.11c-2.07-0.9-4.14-1.8-6.21-2.71
		c-4.3-1.88-8.6-3.77-12.9-5.65c0,0,0.14,0.09,0.14,0.09c-0.19-0.23-0.34-0.58-0.59-0.68c-13.59-5.45-26.92-11.58-41.43-14.45
		c-7.63-1.51-14.8-4.42-21.04-9.23c-1.06-0.82-1.83-2.03-2.73-3.05c0.2-0.31,0.41-0.61,0.61-0.92c2.14,0.16,4.33,0.11,6.42,0.53
		c7.69,1.52,14.5,5.12,21.21,9.03C398.64,253.08,403.61,255.54,408.49,258.15z"/>
	<path class="st0" d="M369.26,23.76c5.22,0.68,9.95,3.78,11.75,8.38c1.96,5,1.39,9.85-2.48,13.58
		c-6.27,6.03-12.78,11.82-19.46,17.38c-5.38,4.49-13.3,3.57-17.6-1.55c-4.47-5.32-4.09-12.75,1.16-17.63
		c6.13-5.7,12.32-11.35,18.79-16.66C363.56,25.5,366.63,24.89,369.26,23.76z M369.13,26.28c-1.95,0.82-4.26,1.22-5.8,2.53
		c-6.73,5.71-13.37,11.54-19.76,17.62c-3.8,3.61-3.66,9.86-0.25,13.67c3.64,4.07,9.61,4.92,13.82,1.41
		c6.7-5.57,13.25-11.34,19.61-17.31c3.07-2.89,3.89-6.79,2.2-10.84C377.19,29.16,374.04,26.81,369.13,26.28z"/>
	<path class="st0" d="M38.6,21.3c5.9,0.86,9.78,3.58,11.96,8.68c1.99,4.65,0.88,10.19-3.04,13.8c-6.17,5.68-12.42,11.3-18.81,16.73
		c-5.31,4.51-12.92,3.91-17.41-1.04c-4.79-5.28-4.68-12.93,0.64-17.92c6.12-5.73,12.4-11.32,18.89-16.63
		C32.98,23.17,35.99,22.47,38.6,21.3z M49.85,35.14c-0.74-4.63-2.61-7.81-6.3-9.67c-3.58-1.81-7.33-2-10.43,0.64
		c-6.95,5.91-13.83,11.92-20.38,18.27c-3.77,3.65-3.24,9.9,0.4,13.55c3.9,3.92,9.84,4.43,13.87,0.95
		c6.33-5.47,12.66-10.97,18.68-16.76C47.57,40.31,48.49,37.5,49.85,35.14z"/>
	<path class="st0" d="M343.9,40.09c-3.74,0.66-7.1,1.57-10.51,1.78c-4.34,0.27-7.7-2.77-8.49-7.01c-0.74-3.97,1.7-8.17,5.73-9.45
		c2.57-0.82,5.24-1.38,7.91-1.76c0.7-0.1,2.11,0.78,2.26,1.44C341.93,29.83,342.81,34.63,343.9,40.09z"/>
	<path class="st0" d="M49.46,555.08c1.96,0.89,3.91,1.77,5.87,2.66c-0.11,0.28-0.22,0.56-0.32,0.85c-0.54-0.08-1.08-0.16-1.61-0.24
		c-7.28-2.41-14.48-5.12-21.86-7.14c-8.21-2.25-16.4-4.39-23.48-9.33c-1.48-1.03-2.66-2.49-3.97-3.74c0.18-0.36,0.36-0.72,0.53-1.07
		c1.45,0,2.92-0.17,4.33,0.03c9.49,1.35,17.56,6.08,25.7,10.75C39.41,550.56,44.51,552.68,49.46,555.08z"/>
	<path class="st0" d="M365.26,548.87c2.09,1.89,4.17,3.78,6.26,5.67c-0.25,0.32-0.5,0.65-0.74,0.97c-1.29-1.02-2.57-2.03-3.86-3.05
		c-1.07-0.88-2.07-1.88-3.22-2.62c-4.48-2.86-9.31-5.26-13.45-8.54c-5.31-4.21-10.15-9.03-15.03-13.76
		c-0.85-0.82-0.85-2.5-1.25-3.79c1.31,0.16,2.77,0,3.89,0.53c2.9,1.38,5.65,3.07,8.46,4.63l-0.11-0.09
		C352.56,535.51,358.91,542.19,365.26,548.87z"/>
	<path class="st0" d="M431.28,268.97c4.3,1.88,8.6,3.77,12.9,5.65c2.07,0.91,4.14,1.81,6.21,2.71c-0.02,0.3-0.03,0.6-0.05,0.9
		c1.83,1.31,2.69,5.68,1.45,7.77c-1.39,2.33-3.32,1.4-5.14,0.68c-3.52-1.39-7.05-2.77-10.53-4.25c-3.24-1.37-3.58-2.98-1.24-5.63
		c1.07-1.21,2.24-2.33,3.66-3.79C436.1,271.65,433.69,270.31,431.28,268.97z"/>
	<path class="st0" d="M120.4,265.38c4.46,1.87,8.93,3.73,13.39,5.6c0.14,2.11,0.41,4.22,0.39,6.33c-0.02,2.72-1.44,3.81-4,2.89
		c-4.27-1.53-8.49-3.22-12.66-5.01c-2.44-1.05-2.64-2.75-0.9-4.91C117.91,268.68,119.14,267.02,120.4,265.38z"/>
	<path class="st0" d="M343.11,41.27c-2.35,3.22-10.19,4.99-14.5,3.49c-4.97-1.72-8.03-6.21-7.89-11.56
		c0.13-4.95,3.65-9.75,8.42-10.83c7.74-1.75,15.53-3.28,23.33-4.76c4-0.76,7.59,0.36,10.43,3.33c0.59,0.61,0.72,1.66,0.6,2.96
		c-4.39-5.36-9.67-4.67-15.2-3.36c-5.81,1.37-11.7,2.45-17.53,3.73c-5.38,1.19-8.79,6.05-7.83,11.02c1.05,5.41,6.13,8.76,11.76,7.69
		C337.42,42.47,340.14,41.88,343.11,41.27z"/>
	<path class="st0" d="M285.58,299.7c-1.32,2.26-2.27,4.89-4.05,6.69c-3.89,3.95-8.19,7.5-12.37,11.16
		c-4.24,3.71-9.93,3.57-13.47-0.27c-3.5-3.79-3.12-9.59,1.04-13.43c4.24-3.91,8.56-7.74,12.96-11.48c3.01-2.56,6.5-2.93,10.06-1.23
		C283.11,292.74,284.76,295.53,285.58,299.7z M268.65,315.45l0.11-0.04c4.08-3.57,8.26-7.04,12.22-10.73
		c2.87-2.67,2.95-7.11,0.52-10.05c-2.52-3.05-6.7-3.88-9.89-1.35c-3.35,2.66-6.23,5.89-9.32,8.88c-1.24,0.95-2.49,1.9-3.73,2.85
		c-1.11,1.62-2.76,3.1-3.21,4.89c-0.86,3.4,0.8,6.29,3.75,7.84C262.39,319.46,265.28,318.77,268.65,315.45z"/>
	<path class="st0" d="M290.67,394.65c2.61,0.19,5.41,1.7,6.95,4.92c2.62,5.49,5.18,11.02,7.54,16.63c2.08,4.95,0,10.02-4.64,12.01
		c-4.85,2.08-9.93,0.1-12.24-4.87c-2.43-5.23-4.85-10.46-7.14-15.75C278.4,401.25,282.9,394.56,290.67,394.65z M288.04,417.55
		c0.67,1.8,1.17,3.7,2.05,5.39c2.19,4.21,6.76,5.64,10.41,3.43c4.15-2.52,4.91-7.2,1.87-11.36c-2.3-5.25-4.36-10.62-6.98-15.7
		c-1.57-3.03-5.69-3.77-8.98-2.33c-3.15,1.38-5.33,5-4.13,8.33C283.79,409.54,286.08,413.48,288.04,417.55z"/>
	<path class="st0" d="M254.79,289.31c0.88,4.3,1.67,8.09,2.5,12.15c-4.17,0.53-8.07,3.27-11.9-0.19c-1.95-1.77-2.53-4.14-1.61-6.57
		C245.7,289.69,250.53,290.52,254.79,289.31z"/>
	<path class="st0" d="M286.11,421.97c-0.3,2.91-0.33,5.42-0.88,7.8c-0.69,3.03-3.84,4.72-7.13,4.22c-2.84-0.43-5.17-3.19-5.04-6.23
		c0.09-2.14,0.43-4.27,0.71-6.89C277.8,421.23,281.71,421.58,286.11,421.97z"/>
	<path class="st0" d="M111.08,112.42c-0.83-5.18-6.4-8.18-2.9-14.05c1.26,2.35,2.28,4.24,3.57,6.64c1.27-3.72,4-3.42,6.72-3.35
		c3.48,0.09,6.96-0.07,10.43,0.12c0.91,0.05,1.78,1.01,2.66,1.56c-0.84,0.57-1.66,1.57-2.54,1.63c-3.14,0.22-6.32,0.34-9.45,0.08
		c-3.02-0.25-4.95,0.74-6.11,3.52C113.03,109.63,112.27,110.54,111.08,112.42z"/>
	<path class="st0" d="M408.49,258.15c-4.88-2.61-9.85-5.07-14.63-7.85c-6.7-3.91-13.52-7.51-21.21-9.03
		c-2.09-0.41-4.28-0.36-6.42-0.53c-0.2,0.31-0.41,0.61-0.61,0.92c0.9,1.03,1.66,2.23,2.73,3.05c6.24,4.8,13.4,7.72,21.04,9.23
		c14.51,2.86,27.84,9,41.43,14.45c0.25,0.1,0.39,0.45,0.59,0.68c-4.04-1.51-8.16-2.82-12.09-4.56
		c-10.17-4.51-20.95-6.96-31.58-10.02c-6.5-1.87-12.68-4.99-18.75-8.06c-1.78-0.9-2.69-3.51-4.01-5.34c2.14-0.33,4.44-1.32,6.4-0.85
		c4.93,1.17,10,2.41,14.46,4.7C393.61,248.92,400.96,253.7,408.49,258.15z"/>
	<path class="st0" d="M91.87,252.04c-4.56-2.18-9.27-4.11-13.66-6.6c-7.48-4.25-14.94-8.47-23.49-10.16
		c-2.25-0.44-4.61-0.36-6.91-0.51c-0.16,0.35-0.33,0.7-0.49,1.05c0.96,1.02,1.79,2.22,2.9,3.04c7.43,5.48,16.06,8.04,24.93,9.8
		c11.88,2.36,22.95,6.9,33.9,11.87c-3.15-1.07-6.28-2.24-9.47-3.2c-10.37-3.12-20.86-5.86-31.1-9.33
		c-6.42-2.17-12.56-5.23-18.65-8.27c-1.47-0.73-2.2-2.94-3.27-4.47c1.88-0.47,3.98-1.72,5.62-1.27c6.14,1.68,12.38,3.38,18.12,6.07
		C77.71,243.56,84.69,248.01,91.87,252.04z"/>
	<path class="st0" d="M69.08,414.34c-0.53-4.29-6.07-7.27-2.68-13.18c1.25,2.35,2.28,4.27,3.57,6.68c1.58-3.96,4.78-3.21,7.71-3.18
		c3.16,0.04,6.33,0.04,9.47,0.3c0.91,0.08,1.75,1,2.62,1.54c-0.95,0.57-1.88,1.57-2.86,1.62c-2.93,0.16-5.89,0.03-8.82-0.16
		c-2.83-0.18-5.11,0.29-6.24,3.33c-0.4,1.09-1.29,1.99-1.96,2.98C69.62,414.29,69.35,414.32,69.08,414.34z"/>
	<path class="st0" d="M430.64,118.19c-0.51-4.24-6.03-7.3-2.56-13.14c1.3,2.39,2.33,4.29,3.62,6.65c1.22-3.59,3.81-3.16,6.3-3.11
		c3.7,0.07,7.4-0.06,11.08,0.16c0.84,0.05,1.61,1.2,2.41,1.84c-0.83,0.46-1.64,1.29-2.49,1.33c-3.15,0.15-6.32,0.25-9.45-0.04
		c-2.99-0.28-4.94,0.69-6.17,3.4c-0.48,1.06-1.25,1.98-1.88,2.97C431.2,118.22,430.92,118.2,430.64,118.19z"/>
	<path class="st0" d="M393.11,410.41c1.06,1.97,2.06,3.84,2.61,4.87c2.51-0.64,4.56-1.46,6.66-1.62c3.36-0.24,6.75-0.13,10.11,0.04
		c1.38,0.07,3.75-0.98,3.71,1.75c-0.04,2.54-2.26,1.41-3.54,1.48c-2.71,0.15-5.47,0.26-8.15-0.05c-3.13-0.36-5.2,0.61-6.46,3.51
		c-0.42,0.97-1.14,1.81-1.75,2.74C391.99,418.13,390.76,413.46,393.11,410.41z"/>
	<path class="st0" d="M49.46,555.08c-4.95-2.4-10.05-4.52-14.81-7.25c-8.14-4.67-16.21-9.39-25.7-10.75
		c-1.42-0.2-2.89-0.03-4.33-0.03c-0.18,0.36-0.36,0.72-0.53,1.07c1.32,1.26,2.5,2.72,3.97,3.74c7.09,4.94,15.28,7.08,23.48,9.33
		c7.38,2.03,14.58,4.74,21.86,7.14c-3.59-1.11-7.17-2.28-10.78-3.34c-8.94-2.62-18.01-4.88-26.81-7.93
		c-3.89-1.35-7.33-4.11-10.81-6.48c-0.88-0.6-1.1-2.16-1.62-3.28c1.13-0.42,2.26-1.2,3.39-1.2c7.52,0,14.17,3.03,20.6,6.47
		C34.82,546.59,42.11,550.9,49.46,555.08z"/>
	<path class="st0" d="M450.34,278.23c0.02-0.3,0.03-0.6,0.05-0.9c0.81,0.04,1.62,0.07,2.42,0.11c0.11-0.3,0.22-0.59,0.33-0.89
		c-2.09-2.07-5.09-2.57-7.73-3.67c-2.75-1.14-5.55-2.16-8.32-3.24c1.5,0.09,3,0.18,4.3,0.26c2.1-2.2,4.13-4.57,6.41-6.65
		c1.47-1.35,4.08-0.39,4.26,1.61c0.27,3.05,0.07,6.15,0.07,9.24c0.42,0.85,0.94,1.9,1.47,2.94
		C452.52,277.43,451.43,277.83,450.34,278.23z"/>
	<path class="st0" d="M89.64,574.37l0.04-0.02c0.68-0.51,1.36-1.03,2.56-1.94c-5.05-2.05-9.37-3.79-13.67-5.57
		c-0.81-0.33-1.56-0.82-2.34-1.23c3.36,1.55,4.86-1.02,6.78-2.94c1.59-1.58,2.67-4.6,5.58-3.58c3.22,1.13,1.52,4.28,1.89,6.56
		c0.36,2.17-0.69,4.44,1.48,6.51C92.93,573.08,91.83,575.02,89.64,574.37z"/>
	<path class="st0" d="M134.87,268.74c-5.08-1.88-10.15-3.76-15.23-5.64c4.29,0.9,5.89-2.65,8.2-4.98c1.31-1.32,2.65-3.31,4.56-1.93
		c1.1,0.79,1.48,2.89,1.73,4.47C134.57,263.31,134.64,266.04,134.87,268.74z"/>
	<path class="st0" d="M256.41,302.48c-2.16,2.55-7.18,3.58-10.37,2.39c-3.37-1.26-5.64-4.56-5.58-8.07c0.06-3.62,2.23-7.06,5.73-7.9
		c6.01-1.45,12.09-2.79,18.22-3.5c2.14-0.25,4.53,1.44,6.74,2.4c0.4,0.17,0.46,1.1,0.41,2.12c-3.66-4.53-8.06-3.26-12.44-2.25
		c-3.7,0.85-7.44,1.53-11.14,2.38c-4.29,0.99-6.52,4.33-5.73,8.42c0.69,3.55,4.04,5.7,8.22,5.15
		C252.36,303.36,254.23,302.9,256.41,302.48z"/>
	<path class="st0" d="M279.69,404.83c-7.81,3.77-5.7,10.69-6.66,16.52c-0.39,2.35-0.63,4.76-0.65,7.14
		c-0.03,3.8,2.82,6.81,6.35,6.99c3.73,0.18,6.71-2.23,7.32-6.02c0.32-2.01,0.52-4.03,0.8-6.23c1.74,2.66,1.26,7.72-0.83,10.51
		c-2.1,2.81-5.7,4.04-8.98,3.07c-3.71-1.1-6.34-3.89-6.17-7.49c0.3-6.3,0.86-12.61,1.68-18.86
		C273.03,406.79,275.68,404.75,279.69,404.83z"/>
	<path class="st0" d="M346.31,528.92c-2.81-1.56-5.56-3.25-8.46-4.63c-1.13-0.54-2.59-0.37-3.89-0.53c0.4,1.28,0.41,2.97,1.25,3.79
		c4.88,4.73,9.72,9.55,15.03,13.76c4.14,3.28,8.97,5.68,13.45,8.54c1.16,0.74,2.15,1.74,3.22,2.62c-2.36-1.26-4.88-2.28-7.04-3.81
		c-7.34-5.19-14.7-10.37-21.73-15.96c-2.27-1.8-3.79-4.72-5.19-7.37c-1.1-2.08,0.35-3.79,2.42-2.82
		C339.18,524.29,342.68,526.74,346.31,528.92z"/>
	<path class="st0" d="M76.23,565.6c0.78,0.41,1.53,0.9,2.34,1.23c4.3,1.78,8.62,3.52,13.67,5.57c-1.21,0.92-1.89,1.43-2.56,1.94
		c-4.52-2.28-9.03-4.57-13.57-6.81c-0.45-0.22-1.06-0.1-1.6-0.14c-0.71-0.4-1.42-0.8-2.12-1.19c-1.13-0.59-2.29-1.14-3.4-1.78
		c-1.5-0.87-2.96-1.81-4.43-2.71C68.45,563.01,72.34,564.3,76.23,565.6z"/>
	<path class="st0" d="M231.8,475.59c-1.44,1.1-2.51,1.91-2.89,2.21c-1.23-0.84-2.32-1.6-3.43-2.33c-0.8-0.53-1.63-1.01-2.44-1.51
		c0.85-0.82,1.71-2.35,2.56-2.35C228.38,471.62,230.77,472.73,231.8,475.59z"/>
	<path class="st0" d="M548.94,482.18c1.38-0.59,2.8-1.72,4.15-1.64c2.45,0.14,4.49,1.43,5.37,5.21c-3.42-0.72-6.32-1.33-9.21-1.94
		C549.14,483.27,549.04,482.73,548.94,482.18z"/>
	<path class="st0" d="M273.99,172.05c-2.59-0.53-5.19-1.02-7.75-1.66c-0.32-0.08-0.75-1.26-0.57-1.51c0.58-0.78,1.39-1.86,2.19-1.93
		c2.92-0.26,5.16,1.02,6.42,3.71C274.18,171.12,274.08,171.59,273.99,172.05z"/>
	<path class="st0" d="M400.33,528.53c1.89,0.55,3.61,1.04,5.49,1.59c-0.55,2.58-1.24,5.07-4.14,4.43
		C398.57,533.86,399.22,531.33,400.33,528.53z"/>
	<path class="st0" d="M122.61,218.44c-1.01,2.58-1.49,5.39-4.62,4.17c-2.94-1.15-2.09-3.51-0.85-5.88
		C118.89,217.27,120.58,217.8,122.61,218.44z"/>
	<path class="st0" d="M434.91,223.3c2.58,0.82,4.29,1.35,6.9,2.18c-1.54,1.71-2.52,3.16-3.86,4.1c-0.46,0.32-2.45-0.43-2.64-1.04
		C434.83,227.09,435.01,225.43,434.91,223.3z"/>
	<path class="st0" d="M73.05,519.33c2.81,0.93,4.4,1.45,6.84,2.26c-1.12,1.55-1.84,3.03-3.01,3.97c-0.52,0.42-2.59,0-2.8-0.5
		C73.47,523.54,73.43,521.8,73.05,519.33z"/>
	<path class="st0" d="M365.26,548.87c-6.35-6.68-12.71-13.36-19.06-20.04c2.55,2.06,5.32,3.92,7.61,6.24
		c3.63,3.69,6.97,7.68,10.37,11.6C364.71,547.26,364.91,548.13,365.26,548.87z"/>
	<path class="st0" d="M64.55,561.71c1.47,0.91,2.93,1.85,4.43,2.71c1.11,0.64,2.26,1.19,3.4,1.78c-4.98-1.77-9.97-3.54-14.95-5.3
		c0.12-0.4,0.24-0.8,0.36-1.2C60.04,560.37,62.3,561.04,64.55,561.71z"/>
	<path class="st0" d="M553.16,363.18c2.53,0.88,5.09,2.55,7.56,2.41c2.31-0.13,4.52-2.17,6.77-3.37c0.2,0.36,0.4,0.72,0.61,1.08
		c-1.72,1.07-3.44,2.14-5.2,3.24c1.51,1.44,2.76,2.62,4,3.79c-0.15,0.17-0.3,0.34-0.46,0.51c-4.55-2.23-9.09-4.46-13.64-6.69
		C552.93,363.83,553.05,363.51,553.16,363.18z"/>
	<path class="st0" d="M567.37,273.98c2.62,1.96,5.24,3.93,7.85,5.89c-0.25,0.34-0.5,0.68-0.75,1.02c-2.63-1.95-5.25-3.9-7.88-5.86
		C566.85,274.68,567.11,274.33,567.37,273.98z"/>
	<path class="st0" d="M326.78,544.02c2.69,0.03,6.87,3.16,7.73,5.78c0.82,2.49-0.64,7.46-2.97,8.74c-0.99,0.54-2.88,0.53-3.81-0.08
		c-3.5-2.27-4.98-5.95-5.55-9.91C321.85,546.24,324.38,543.99,326.78,544.02z"/>
	<path class="st0" d="M321.74,566.29c0.14,4.04-4.3,7.84-7.3,6.67c-2.32-0.91-4.69-2.27-6.38-4.06c-1.85-1.95-1.62-4.63,0.02-6.91
		c1.54-2.14,3.71-2.06,5.86-1.26c1.91,0.71,3.88,1.47,5.54,2.61C320.61,564.13,321.25,565.63,321.74,566.29z"/>
	<path class="st0" d="M14.91,567.04c-1.05,1.88-1.7,4.77-3.24,5.36c-1.6,0.61-4.33-0.6-6.04-1.78c-1.78-1.23-3.2-3.23-4.29-5.16
		c-1.43-2.51,0.21-5.58,3.01-6.31C9.19,557.89,14.27,561.75,14.91,567.04z"/>
	<path class="st0" d="M163.79,514.42c3.62,6.79,3.57,6.72-0.79,9.85c-4.61,3.31-4.82-2.13-7.16-3.4c-2.15,0.86-4.38,2.44-6.57,2.38
		c-1.32-0.04-2.83-2.49-3.78-4.13c-2.49-4.29,2.83-4.19,3.81-6.59c-0.87-2.12-2.37-4.31-2.42-6.54c-0.03-1.16,2.39-2.55,3.89-3.55
		c4.56-3.04,4.49,2.98,7.19,3.73c6.31-3.35,6.46-3.45,8.37-0.49c0.95,1.48,2.12,3.66,1.66,4.99
		C167.45,512.24,165.24,513.22,163.79,514.42z"/>
	<path class="st0" d="M146.84,492.33c-2.75,1.95-4.95,3.52-7.4,5.25c-1.13-1.47-2.17-2.81-3.44-4.46c2.52-1.86,4.9-3.61,7.47-5.51
		C144.66,489.29,145.7,490.74,146.84,492.33z"/>
	<path class="st0" d="M511.23,216.2c-3.78-6.29-3.78-6.29-0.69-8.61c3.84-2.89,3.84-2.89,8.75,2.37c2.12-0.95,4.17-2.43,6.33-2.59
		c1.06-0.08,2.41,2.21,3.44,3.57c3.51,4.64-2.33,4.96-3.42,7.37c0.97,2.12,2.38,4.16,2.65,6.34c0.11,0.91-2.14,2.18-3.39,3.2
		c-4.68,3.8-5.2-2.08-7.69-3.35c-6.49,3.6-6.49,3.6-9.19-0.16C505.73,221.16,505.73,221.16,511.23,216.2z"/>
	<path class="st0" d="M504.97,191.55c1.17,1.46,2.23,2.76,3.55,4.41c-2.52,1.87-4.81,3.57-7.44,5.52c-1.14-1.49-2.15-2.81-3.46-4.52
		C500.1,195.13,502.4,193.44,504.97,191.55z"/>
	<path class="st0" d="M198.65,216.79c-2.77,0.33-4.73,6-8.11,1.19c-1.11-1.58-2.6-3.77-2.25-5.29c0.38-1.63,2.73-2.8,4.15-4.1
		c-0.53-2.91-6-4.93-1.01-8.48c3.87-2.76,3.76-2.92,9.37,2.13c2.74-0.53,5.02-5.99,8.24-0.88c1.02,1.61,2.29,3.8,1.91,5.34
		c-0.37,1.51-2.71,2.54-4.15,3.75c3.74,6.43,3.74,6.43,0.59,8.93C204.15,221.94,204.15,221.94,198.65,216.79z"/>
	<path class="st0" d="M182.28,193.98c-1.3-1.69-2.35-3.04-3.52-4.56c2.48-1.89,4.79-3.64,7.35-5.59c1.14,1.48,2.18,2.82,3.46,4.48
		C187.15,190.2,184.88,191.96,182.28,193.98z"/>
	<path class="st0" d="M475.87,521.14c-3.52-6.56-3.47-6.5,0.73-9.59c4.67-3.43,5.14,1.93,7.45,3.44c2.08-0.97,4.14-2.57,6.26-2.66
		c1.19-0.05,2.69,2.27,3.7,3.76c3.04,4.47-2.37,4.84-3.57,7.16c0.97,2.11,2.39,4.14,2.67,6.31c0.12,0.92-2.11,2.2-3.35,3.22
		c-4.65,3.86-5.29-1.86-7.73-3.28c-6.77,3.34-6.61,3.23-9.55-0.66C468.95,524.16,474.32,523.7,475.87,521.14z"/>
	<path class="st0" d="M462.42,501.9c2.6-1.91,4.86-3.56,7.43-5.44c1.2,1.59,2.26,2.99,3.43,4.54c-2.46,1.83-4.7,3.51-7.28,5.43
		C464.87,505.02,463.78,503.63,462.42,501.9z"/>
	<path class="st0" d="M381.02,178.59c0.41-0.34,0.76-0.59,1.05-0.9c1.64-1.74,3.61-2.32,5.5-0.77c2.11,1.74,1.98,4.23,0.43,6.15
		c-2.02,2.52-4.51,4.67-7.04,7.22c-2.4-2.28-4.91-4.34-6.99-6.76c-1.43-1.67-2.21-4.07-0.41-5.94c0.86-0.9,2.68-1.32,3.99-1.19
		C378.69,176.51,379.71,177.71,381.02,178.59z"/>
	<path class="st0" d="M236.5,357.75c1.68,1.52,2.82,2.56,3.97,3.6c-0.15,0.19-0.3,0.38-0.44,0.57c-4.54-2.18-9.07-4.37-13.61-6.55
		c0.1-0.32,0.21-0.63,0.31-0.95c1.83,0.58,3.72,1.01,5.47,1.77c1.67,0.72,2.89,0.76,4.4-0.55c1.2-1.04,2.95-1.45,4.46-2.14
		c0.16,0.35,0.32,0.7,0.48,1.06C239.95,355.57,238.35,356.59,236.5,357.75z"/>
	<path class="st0" d="M267.61,49.35c5.12,3.05,10.07,2.71,14.85-1.12c0.07,0.49,0.15,0.98,0.22,1.47c-1.64,1.02-3.27,2.04-5.52,3.45
		c1.93,1.31,3.37,2.28,4.8,3.25c-0.25,0.25-0.5,0.49-0.75,0.74c-4.57-2.19-9.14-4.38-13.72-6.56
		C267.53,50.17,267.57,49.76,267.61,49.35z"/>
	<path class="st0" d="M320.35,329.82c1.91-1.8,4.02-3.32,6.03-1.08c1.98,2.22,0.64,4.48-1.18,6.29c-1.54,1.53-3.18,2.95-4.81,4.44
		c-1.64-1.45-3.29-2.84-4.85-4.33c-1.89-1.79-3.1-4.14-1.29-6.32C316.18,326.5,318.34,328.08,320.35,329.82z"/>
	<path class="st0" d="M480.27,50.48c-1.3,0.84-2.52,2.18-3.92,2.39c-2.15,0.33-3.8-1.44-3.43-3.34c0.27-1.36,2.18-3.2,3.51-3.32
		c1.21-0.11,2.6,1.79,3.92,2.8C480.32,49.5,480.29,49.99,480.27,50.48z"/>
	<path class="st0" d="M493.19,68.63c-0.86-1.37-2.61-2.93-2.37-4.06c0.29-1.34,2.29-2.32,3.55-3.45c1.05,1.19,2.72,2.24,2.99,3.59
		C497.79,66.8,496.23,68.03,493.19,68.63z"/>
	<path class="st0" d="M487.54,41.5c0.89,1.39,2.52,2.83,2.45,4.17c-0.06,1.16-2.24,3.25-3.14,3.08c-1.38-0.25-3.29-2.01-3.43-3.29
		c-0.13-1.22,1.73-2.65,2.71-3.99C486.59,41.49,487.07,41.49,487.54,41.5z"/>
	<path class="st0" d="M486.93,36.36c-1.32,0.94-2.66,2.64-3.95,2.6c-1.22-0.04-3.11-1.74-3.4-3.01c-0.44-1.92,1.02-3.61,3.18-3.72
		C484.87,32.13,486.16,33.39,486.93,36.36z"/>
	<path class="st0" d="M476.48,40.46c-1.33,0.91-2.7,2.57-3.99,2.51c-1.18-0.05-2.95-1.79-3.27-3.08c-0.5-2.03,1.11-3.76,3.17-3.54
		c1.43,0.15,2.72,1.64,4.07,2.52C476.47,39.4,476.48,39.93,476.48,40.46z"/>
	<path class="st0" d="M486.48,53.88c1.4-0.77,2.91-2.29,4.17-2.11c1.23,0.18,2.21,2.09,3.31,3.24c-1.23,1.13-2.39,3.02-3.72,3.15
		c-1.19,0.12-2.57-1.71-3.86-2.67C486.41,54.95,486.44,54.41,486.48,53.88z"/>
	<path class="st0" d="M476.09,57.8c1.42-0.75,2.82-2.05,4.27-2.12c2.13-0.09,3.5,1.79,2.86,3.72c-0.41,1.24-2.33,2.78-3.53,2.74
		c-1.28-0.04-2.51-1.78-3.77-2.77C475.99,58.85,476.04,58.32,476.09,57.8z"/>
	<path class="st0" d="M487.07,68.82c-0.11,2.05-1.24,3.28-3.45,3.27c-2.27-0.01-3.66-1.46-3.15-3.49c0.32-1.3,1.9-2.94,3.16-3.19
		C485.58,65.01,487.08,66.35,487.07,68.82z"/>
	<path class="st0" d="M433.36,343.98c1.33-0.94,2.58-2.49,4.02-2.69c2.07-0.29,3.71,1.41,3.24,3.47c-0.3,1.31-1.98,3.1-3.16,3.19
		c-1.29,0.1-2.7-1.52-4.07-2.39C433.38,345.04,433.37,344.51,433.36,343.98z"/>
	<path class="st0" d="M455.49,351.2c-1.33,0.94-2.58,2.49-4.01,2.69c-2.03,0.28-3.74-1.37-3.27-3.45c0.3-1.33,1.99-3.15,3.19-3.25
		c1.28-0.11,2.71,1.54,4.08,2.42C455.48,350.14,455.49,350.67,455.49,351.2z"/>
	<path class="st0" d="M459.14,360.82c-1.4,0.84-2.86,2.41-4.18,2.31c-1.17-0.09-2.85-1.91-3.13-3.22c-0.46-2.15,1.43-3.65,3.36-3.38
		c1.44,0.2,2.68,1.82,4.01,2.81C459.18,359.82,459.16,360.32,459.14,360.82z"/>
	<path class="st0" d="M437.22,353.66c1.26-0.91,2.45-2.41,3.81-2.59c2.01-0.27,3.47,1.16,3.46,3.4c-0.01,2.18-1.25,3.78-3.4,3.38
		c-1.43-0.27-2.63-1.78-3.93-2.74C437.19,354.63,437.21,354.15,437.22,353.66z"/>
	<path class="st0" d="M454.98,368.78c1.36-0.89,2.67-2.39,4.09-2.52c2.03-0.18,3.67,1.56,3.17,3.59c-0.32,1.28-2.01,2.82-3.34,3.1
		C456.75,373.42,455.66,371.73,454.98,368.78z"/>
	<path class="st0" d="M448.74,364.81c-1.38,0.85-2.7,2.27-4.15,2.43c-2.06,0.22-3.73-1.44-3.19-3.49c0.33-1.28,2.16-2.97,3.37-3.01
		c1.31-0.04,2.67,1.62,4.02,2.54C448.77,363.78,448.76,364.29,448.74,364.81z"/>
	<path class="st0" d="M448.31,336.64c0.96,1.33,2.47,2.55,2.74,4.01c0.37,2.03-1.13,3.83-3.26,3.42c-1.28-0.25-3.06-1.95-3.18-3.14
		c-0.13-1.32,1.38-2.81,2.17-4.22C447.29,336.68,447.8,336.66,448.31,336.64z"/>
	<path class="st0" d="M449.21,377.63c-2.98-0.76-4.52-2.03-3.99-4.11c0.34-1.3,2.32-3.27,3.18-3.09c1.39,0.29,3.22,1.99,3.42,3.31
		C452,374.87,450.16,376.32,449.21,377.63z"/>
	<path class="st0" d="M174.51,53.17c0.91,1.37,2.59,2.78,2.52,4.1c-0.06,1.19-1.89,2.96-3.21,3.24c-1.96,0.42-3.81-1.05-3.46-3.24
		c0.24-1.47,1.69-2.74,2.6-4.1C173.48,53.17,173.99,53.17,174.51,53.17z"/>
	<path class="st0" d="M169.62,42.64c1.68,2.15,3.44,3.44,3.5,4.8c0.05,1.13-1.71,3.07-2.99,3.39c-2.24,0.57-3.91-1.17-3.69-3.38
		C166.59,46.08,168.1,44.84,169.62,42.64z"/>
	<path class="st0" d="M162.63,65.32c-0.95-1.32-2.47-2.55-2.71-3.98c-0.34-2.05,1.43-3.74,3.32-3.39c1.35,0.25,3.15,2.05,3.36,3.37
		c0.18,1.18-1.55,2.66-2.43,4.01C163.66,65.33,163.14,65.33,162.63,65.32z"/>
	<path class="st0" d="M159.66,43.08c-1.35,0.9-2.62,2.38-4.06,2.56c-2.09,0.26-3.33-1.36-3.28-3.54c0.06-2.31,1.71-3.51,3.65-3.19
		c1.34,0.22,2.47,1.74,3.7,2.67C159.67,42.08,159.67,42.58,159.66,43.08z"/>
	<path class="st0" d="M158.76,55.57c-0.94-1.32-2.65-2.66-2.61-3.94c0.04-1.19,1.8-2.99,3.09-3.3c1.91-0.46,3.59,0.83,3.66,3.13
		C162.97,53.68,161.74,54.84,158.76,55.57z"/>
	<path class="st0" d="M161.74,32.41c-1.04-1.3-2.94-2.66-2.87-3.9c0.07-1.26,1.95-3.09,3.31-3.37c0.91-0.19,3.12,1.82,3.23,2.99
		c0.13,1.32-1.44,2.8-2.28,4.22C162.67,32.37,162.2,32.39,161.74,32.41z"/>
	<path class="st0" d="M152.53,28.48c0.92,1.37,2.41,2.67,2.61,4.14c0.29,2.07-1.39,3.71-3.45,3.21c-1.28-0.31-3.05-2.09-3.07-3.24
		c-0.03-1.35,1.59-2.74,2.5-4.12C151.59,28.48,152.06,28.48,152.53,28.48z"/>
	<path class="st0" d="M166.98,34.17c0.85,1.38,2.45,2.83,2.33,4.12c-0.11,1.23-2.27,3.37-3.08,3.18c-1.41-0.32-3.26-2.02-3.46-3.36
		c-0.18-1.16,1.66-2.64,2.6-3.98C165.91,34.15,166.45,34.16,166.98,34.17z"/>
	<path class="st0" d="M133.27,356.84c0.93,1.35,2.47,2.63,2.65,4.08c0.25,2.05-1.46,3.72-3.51,3.25c-1.31-0.3-3.1-2.05-3.17-3.25
		c-0.08-1.31,1.57-2.72,2.46-4.09C132.22,356.84,132.74,356.84,133.27,356.84z"/>
	<path class="st0" d="M128.16,355.16c-0.98-1.35-2.57-2.61-2.8-4.08c-0.32-2.03,1.31-3.77,3.41-3.3c1.31,0.29,3.14,2.01,3.2,3.17
		c0.07,1.36-1.54,2.79-2.42,4.19C129.08,355.15,128.62,355.15,128.16,355.16z"/>
	<path class="st0" d="M126.15,365.4c-1.3,0.99-2.5,2.54-3.94,2.82c-2.01,0.39-3.51-1.08-3.61-3.23c-0.11-2.18,1.33-3.7,3.33-3.5
		c1.45,0.15,2.78,1.57,4.16,2.43C126.11,364.41,126.13,364.9,126.15,365.4z"/>
	<path class="st0" d="M122.28,355.89c-1.35,0.91-2.74,2.58-4.04,2.51c-1.19-0.06-2.99-1.87-3.24-3.16
		c-0.44-2.26,1.41-3.82,3.58-3.52c1.34,0.19,2.49,1.76,3.72,2.71C122.29,354.93,122.29,355.41,122.28,355.89z"/>
	<path class="st0" d="M115.93,341.89c0.75,1.44,2.25,3.02,2.04,4.3c-0.2,1.17-2.22,2.79-3.51,2.85c-2.2,0.12-3.69-1.75-3.04-3.97
		c0.38-1.31,1.99-2.27,3.04-3.38C114.95,341.76,115.44,341.82,115.93,341.89z"/>
	<path class="st0" d="M120.58,335.79c-0.9-1.34-2.53-2.71-2.47-4.01c0.05-1.14,1.83-2.82,3.13-3.14c2.06-0.51,3.74,1.14,3.52,3.16
		c-0.15,1.41-1.7,2.68-2.62,4.01C121.62,335.8,121.1,335.79,120.58,335.79z"/>
	<path class="st0" d="M110.42,331.88c2.83,0.99,4.47,2.22,3.85,4.29c-0.39,1.29-2.14,2.84-3.45,3.03c-1.95,0.27-3.76-1.29-3.29-3.44
		C107.84,334.32,109.41,333.16,110.42,331.88z"/>
	<path class="st0" d="M124.01,345.55c-0.76-1.3-2.03-2.55-2.18-3.92c-0.22-2.09,1.36-3.79,3.39-3.23c1.37,0.37,3.15,2.24,3.23,3.53
		c0.08,1.18-1.88,2.49-2.94,3.75C125.01,345.63,124.51,345.59,124.01,345.55z"/>
	<path class="st0" d="M152.39,403.31c2.05-1.66,4.1-3.33,6.15-4.99c2.39,2.52,4.77,5.03,7.15,7.55c0.25-0.22,0.51-0.44,0.76-0.65
		c-1.56-1.97-2.99-4.07-4.75-5.85c-0.7-0.71-2.1-0.72-3.18-1.04c2.59-2.1,5.17-4.21,7.76-6.31c1.94,2.86,3.88,5.73,5.82,8.59
		c0.48-0.4,0.95-0.79,1.43-1.19c-2.45-2.44-4.9-4.87-7.35-7.31c1.17-1.07,2.34-2.14,3.69-3.37c4.58,5.67,8.93,11.05,13.65,16.89
		c-8.31,6.56-16.43,12.97-24.56,19.39c-0.25-0.87-0.28-1.92-0.8-2.59c-3.34-4.29-6.75-8.52-10.22-12.71
		c-0.48-0.58-1.37-0.83-2.07-1.24c2.2-1.75,4.41-3.51,6.61-5.26c1.97,2.8,3.94,5.59,5.91,8.39c0.36-0.3,0.72-0.6,1.08-0.9
		C157.13,408.23,156.25,404.49,152.39,403.31z"/>
	<path class="st0" d="M145.87,408.48c0.7,0.4,1.59,0.65,2.07,1.24c3.46,4.19,6.88,8.42,10.22,12.71c0.52,0.67,0.55,1.71,0.8,2.59
		c-1.56,1.16-3.03,2.49-4.73,3.41c-0.67,0.36-2.23,0.17-2.7-0.36c-3.56-4.09-7.02-8.28-10.32-12.59c-0.46-0.6-0.2-2.32,0.36-3.02
		C142.79,410.95,144.41,409.78,145.87,408.48z"/>
	<path class="st0" d="M471.95,417.59c7.96-6.58,15.91-13.16,24.28-20.07c4.58,5.64,8.99,11.08,13.71,16.88
		c-8.52,6.79-16.84,13.42-25.16,20.05c-0.02-1.02,0.38-2.35-0.11-3.01c-3.24-4.29-6.63-8.47-10.09-12.59
		C474,418.17,472.84,418,471.95,417.59z M493.65,400.83c-0.35,0.3-0.7,0.6-1.05,0.9c2.04,2.52,4.08,5.05,6.12,7.57
		c0.35-0.28,0.69-0.56,1.04-0.83C497.71,405.92,495.68,403.37,493.65,400.83z M486.76,406.4c-0.36,0.28-0.72,0.57-1.08,0.85
		c2.05,2.52,4.1,5.04,6.14,7.56c0.34-0.27,0.68-0.54,1.02-0.81C490.82,411.47,488.79,408.94,486.76,406.4z M484.99,420.39
		c0.35-0.3,0.71-0.6,1.06-0.91c-2.07-2.48-4.13-4.96-6.2-7.44c-0.32,0.26-0.64,0.53-0.95,0.79
		C480.93,415.35,482.96,417.87,484.99,420.39z"/>
	<path class="st0" d="M471.95,417.59c0.89,0.41,2.06,0.58,2.62,1.26c3.46,4.12,6.85,8.3,10.09,12.59c0.5,0.66,0.1,1.99,0.11,3.01
		c-5.58,4.13-5.58,4.12-9.88-1.07c-2.35-2.83-4.64-5.73-7.14-8.43c-1.63-1.77-1.3-2.94,0.47-4.23
		C469.53,419.76,470.71,418.64,471.95,417.59z"/>
	<path class="st0" d="M507.06,112.92c2.34-1.9,4.69-3.8,7.03-5.7c2.02,2.76,4.04,5.52,6.06,8.27c0.41-0.34,0.82-0.67,1.23-1.01
		c-2.32-2.57-4.64-5.13-6.95-7.7c2.24-1.83,4.48-3.67,6.71-5.5c1.89,2.94,3.79,5.88,5.69,8.82c0.44-0.33,0.88-0.67,1.32-1
		c-2.32-2.61-3.76-5.92-7.1-7.73c2.04-1.61,4.08-3.23,6.14-4.85c2.32,2.54,4.62,5.1,6.92,7.65c0.26-0.24,0.52-0.47,0.78-0.71
		c-1.73-2.16-3.38-4.39-5.26-6.42c-0.46-0.5-1.66-0.33-2.51-0.46c1.32-1.25,2.64-2.5,4.3-4.08c4.59,5.66,8.99,11.09,13.6,16.79
		c-3.31,2.73-6.35,5.31-9.48,7.79c-4.85,3.84-9.75,7.62-14.62,11.42c-0.06-0.32-0.01-0.72-0.19-0.94
		c-3.78-4.77-7.55-9.55-11.44-14.24C508.93,112.9,507.83,113.05,507.06,112.92z"/>
	<path class="st0" d="M507.06,112.92c0.76,0.13,1.86-0.02,2.24,0.43c3.89,4.69,7.66,9.46,11.44,14.24c0.18,0.22,0.13,0.63,0.19,0.94
		c-1.69,1.34-3.31,2.8-5.12,3.96c-0.57,0.37-2.06,0.26-2.45-0.2c-3.67-4.27-7.25-8.62-10.67-13.09c-0.43-0.56-0.12-2.24,0.44-2.91
		C504.22,114.98,505.73,114.02,507.06,112.92z"/>
	<path class="st0" d="M514.43,106.79c2.32,2.57,4.64,5.13,6.95,7.7c-0.41,0.34-0.82,0.67-1.23,1.01c-2.02-2.76-4.04-5.52-6.06-8.27
		C514.22,107.09,514.33,106.95,514.43,106.79z"/>
	<path class="st0" d="M269.59,217.39c0.45,0.34,1.09,0.58,1.32,1.04c1.02,1.99,2.18,2.83,4.78,2.75c1.62-0.05,3.31,2.38,5.28,3.95
		c-2.57,1.86-4.35,3.15-6.68,4.83c3.57,1.67,5.01-1.54,8.24-1.73c-0.34,1.2-0.49,2.23-0.92,3.13c-0.4,0.84-1.09,1.53-1.66,2.29
		c1.04-0.13,2.08-0.21,3.11-0.39c0.41-0.07,0.79-0.35,1.17-0.54c1.17,1.56,1.17,1.56-1.84,5.44c0.95-0.15,1.89-0.37,2.84-0.44
		c0.81-0.06,1.63,0.03,2.45,0.05c-0.42,0.62-0.73,1.39-1.29,1.84c-1.25,1.02-2.62,1.88-3.94,2.81c0.24,0.43,0.49,0.87,0.73,1.3
		c2.01-0.88,4.03-1.77,6.27-2.75c0.37,0.58,0.81,1.27,1.32,2.08c-0.84,0.58-1.63,0.98-2.21,1.58c-0.43,0.45-0.6,1.17-0.88,1.76
		c0.68,0.07,1.43,0.37,2.01,0.17c1.3-0.44,2.66-2.08,3.45,0.53c-0.13,0.21-0.22,0.42-0.36,0.57c-0.87,0.97-1.76,1.93-2.64,2.89
		c1.22-0.17,2.43-0.46,3.65-0.47c0.67-0.01,1.34,0.44,2.8,0.96c-2.17,1.35-3.67,2.16-5.02,3.18c-0.47,0.36-0.57,1.21-0.84,1.84
		c0.67,0.05,1.42,0.31,2,0.11c0.9-0.32,1.74-0.89,2.53-1.46c1.83-1.33,2.68-0.56,3.18,1.37c-0.41,0.3-0.82,0.49-1.08,0.81
		c-0.66,0.82-1.24,1.7-1.85,2.56c0.97-0.13,1.95-0.34,2.93-0.37c0.84-0.02,1.7,0.16,2.69,0.27c-1.36,1.88-2.24,3.08-3.12,4.29
		c1.46-0.17,2.91-0.34,4.62-0.53c3.45,4.02,3.25,6.02-1.23,8.57c-3.02,1.72-4.6,1.36-6.45-1.71c-8.2-13.6-16.36-27.22-24.52-40.84
		c-1.12-1.87-1.66-3.68-0.11-5.73c0.48-0.63,0.26-1.98,0.03-2.92c-0.23-0.94-0.88-1.77-1.34-2.66
		C269.21,217.67,269.4,217.53,269.59,217.39z"/>
	<path class="st0" d="M200.92,93.56c2.35-1.81,4.7-3.62,7.04-5.44c1.02,3.57,3.99,5.49,6.01,8.21c0.39-0.34,0.78-0.69,1.17-1.03
		c-2.4-2.39-4.79-4.78-7.19-7.17c1-1.08,2-2.15,3.33-3.58c4.77,5.73,9.25,11.12,13.94,16.75c-8.07,6.64-16.02,13.19-23.97,19.74
		c-0.11-0.52-0.06-1.17-0.35-1.54c-3.82-4.7-7.67-9.39-11.59-14.01c-0.3-0.35-1.19-0.19-1.81-0.27c4.51-3.92,9.01-7.83,13.52-11.74
		c1.06,3.66,4.11,5.59,6.06,8.47c0.42-0.37,0.83-0.75,1.25-1.12C205.85,98.4,203.38,95.98,200.92,93.56z M195.21,99.21
		c-0.35,0.3-0.69,0.61-1.04,0.91c2.04,2.48,4.07,4.96,6.11,7.45c0.34-0.29,0.68-0.57,1.03-0.86
		C199.28,104.21,197.25,101.71,195.21,99.21z"/>
	<path class="st0" d="M187.49,105.22c0.62,0.08,1.51-0.08,1.81,0.27c3.92,4.62,7.77,9.3,11.59,14.01c0.3,0.37,0.24,1.02,0.35,1.54
		c-1.29,0.98-2.65,1.88-3.85,2.95c-1.82,1.63-3.25,1.66-4.85-0.41c-2.71-3.5-5.52-6.94-8.49-10.22c-2-2.21-2.38-3.97,0.37-5.76
		C185.5,106.89,186.47,106.01,187.49,105.22z"/>
	<path class="st0" d="M207.95,88.13c2.4,2.39,4.79,4.78,7.19,7.17c-0.39,0.34-0.78,0.69-1.17,1.03c-2.02-2.72-4.99-4.64-6.01-8.21
		C207.97,88.12,207.95,88.13,207.95,88.13z"/>
	<path class="st0" d="M97.56,470.86c-0.82-0.14-1.82-0.31-3.05-0.52c-0.58,1.69-1.12,3.31-1.73,5.08c0.99,0.59,1.87,1.11,3.54,2.1
		c-1.79-0.18-2.75-0.28-3.98-0.4c-0.54,1.6-1.08,3.22-1.7,5.04c0.95,0.54,1.84,1.05,3.6,2.05c-1.86-0.17-2.79-0.26-4.01-0.37
		c-0.57,1.63-1.16,3.32-1.8,5.16c1.04,0.52,1.95,0.97,2.86,1.41c-0.03,0.14-0.07,0.27-0.1,0.41c-1.01-0.06-2.03-0.13-3.19-0.2
		c-0.55,1.61-1.11,3.24-1.72,5.03c1.01,0.52,1.93,0.98,2.84,1.45c-0.02,0.16-0.04,0.31-0.05,0.47c-0.94-0.08-1.87-0.15-3.24-0.26
		c-1.78,5.44-3.49,11-5.46,16.47c-0.51,1.41-1.81,2.54-2.74,3.8c-0.04-1.56-0.47-3.23-0.06-4.65c1.61-5.6,3.48-11.13,5.26-16.71
		c-1.32-0.66-2.26-1.13-3.2-1.6c0.03-0.15,0.07-0.29,0.1-0.44c1.09,0.15,2.18,0.31,3.56,0.5c0.55-1.67,1.11-3.38,1.72-5.23
		c-1.29-0.58-2.42-1.08-3.55-1.58c0.05-0.18,0.11-0.36,0.16-0.53c1.18,0.22,2.36,0.44,3.76,0.71c0.59-1.73,1.17-3.43,1.79-5.26
		c-1.28-0.57-2.32-1.03-3.35-1.5c0.03-0.2,0.07-0.41,0.1-0.61c1.12,0.2,2.24,0.39,3.36,0.59c2.45-4.65,2.43-4.74-1.81-7.37
		c1.73,0.29,2.83,0.47,4.25,0.7c0.56-1.74,1.1-3.44,1.68-5.25c-1.27-0.57-2.34-1.04-3.22-1.43c1.72-0.51,3.49-1.1,5.29-1.52
		c0.37-0.09,1.01,0.34,1.3,0.7C95.75,468.31,96.62,469.58,97.56,470.86z M88.28,485.98c-0.3-0.1-0.6-0.19-0.9-0.29
		c-3.24,10.09-6.47,20.17-9.71,30.26c0.3,0.1,0.59,0.19,0.89,0.29C81.8,506.15,85.04,496.06,88.28,485.98z"/>
	<path class="st0" d="M122.38,191.14c1.12,0.16,2.24,0.32,3.64,0.51c0.53-1.66,1.08-3.37,1.66-5.18c-1.31-0.62-2.47-1.17-3.63-1.72
		c0.06-0.17,0.11-0.33,0.17-0.5c1.23,0.19,2.46,0.38,3.86,0.59c0.56-1.67,1.1-3.3,1.69-5.09c-1.27-0.6-2.39-1.13-3.5-1.67
		c0.03-0.16,0.07-0.32,0.1-0.48c1.16,0.16,2.32,0.32,3.46,0.48c2.48-4.48,2.4-4.95-1.07-7.19c1.04,0.16,2.09,0.33,3.43,0.54
		c0.54-1.67,1.1-3.39,1.69-5.2c-1.32-0.64-2.39-1.16-3.14-1.52c1.5-0.44,3.04-1.01,4.63-1.32c0.58-0.11,1.49,0.18,1.88,0.61
		c0.96,1.06,1.7,2.32,2.51,3.46c-0.56-0.05-1.5-0.13-2.77-0.24c-0.52,1.57-1.08,3.27-1.67,5.05c0.96,0.52,1.77,0.97,3.24,1.77
		c-1.63,0-2.58,0-3.7,0c-0.38,2.41-3.52,5.02,1.07,6.86c-0.95-0.04-1.91-0.09-3.08-0.14c-0.61,2.38-3.45,4.95,0.95,6.94
		c-0.97-0.09-1.95-0.17-3.09-0.27c-0.38,2.33-3.34,4.86,1.56,6.78c-1.62,0-2.59,0-3.7,0c-1.86,6.01-3.62,11.93-5.58,17.78
		c-0.34,1-1.51,1.73-2.3,2.58c-0.21-1.14-0.85-2.4-0.57-3.4c1.71-6.02,3.63-11.98,5.5-18.04c-1.31-0.61-2.34-1.08-3.38-1.56
		C122.29,191.43,122.33,191.28,122.38,191.14z M131.02,182.55c-0.3-0.09-0.6-0.18-0.9-0.27c-3.15,10.23-6.3,20.46-9.46,30.7
		c0.3,0.09,0.6,0.18,0.9,0.27C124.71,203.01,127.86,192.78,131.02,182.55z"/>
	<path class="st0" d="M444.86,198.53c0.57-1.65,1.12-3.27,1.77-5.15c-1.24-0.55-2.36-1.05-3.49-1.55c0.04-0.22,0.08-0.44,0.13-0.66
		c1.13,0.21,2.25,0.41,3.73,0.69c0.54-1.64,1.1-3.33,1.72-5.2c-1.24-0.58-2.26-1.06-3.28-1.54c0.03-0.17,0.06-0.34,0.09-0.51
		c1.14,0.15,2.27,0.3,3.74,0.49c0.52-1.66,1.05-3.36,1.62-5.17c-1.35-0.64-2.46-1.16-3.57-1.69c0.07-0.18,0.13-0.36,0.2-0.54
		c1.11,0.24,2.22,0.48,3.68,0.8c0.6-1.64,1.21-3.33,1.9-5.21c-1.27-0.6-2.37-1.13-3.31-1.58c1.64-0.45,3.29-1.02,4.99-1.31
		c0.56-0.1,1.44,0.36,1.84,0.84c0.78,0.96,1.33,2.11,1.99,3.2c-0.52-0.03-1.39-0.08-2.47-0.14c-0.35,2.3-3.52,4.79,1.59,6.8
		c-1.78,0-2.75,0-3.84,0c-0.54,1.61-1.06,3.14-1.65,4.9c1,0.56,1.96,1.09,3.77,2.1c-1.93-0.15-2.98-0.24-4.24-0.33
		c-0.54,1.59-1.06,3.11-1.65,4.83c0.93,0.59,1.78,1.14,3.32,2.12c-1.64-0.11-2.57-0.17-3.5-0.24c-2.15,5.05-2.77,4.17,1.08,7.03
		c-1.34-0.17-2.24-0.28-3.55-0.45c-1.82,5.55-3.68,11.19-5.53,16.83c-0.14,0.41-0.08,0.97-0.34,1.24c-0.76,0.81-1.64,1.52-2.47,2.26
		c-0.17-1.03-0.72-2.17-0.45-3.07c1.67-5.62,3.52-11.19,5.32-16.78c0.13-0.4,0.27-0.8,0.47-1.38c-1.26-0.63-2.44-1.21-3.62-1.8
		c0.05-0.15,0.1-0.31,0.16-0.46C442.21,198.1,443.41,198.29,444.86,198.53z M439.23,219.86c0.31,0.1,0.61,0.19,0.92,0.29
		c3.25-10.13,6.51-20.26,9.76-30.39c-0.3-0.1-0.6-0.19-0.9-0.29C445.75,199.61,442.49,209.74,439.23,219.86z"/>
	<path class="st0" d="M411.95,496.77c0.61-1.96,1.09-3.5,1.62-5.2c-1.13-0.5-2.17-0.97-3.2-1.43c0.03-0.17,0.06-0.33,0.1-0.5
		c1.06,0.13,2.12,0.26,3.47,0.43c0.58-1.62,1.18-3.31,1.83-5.13c-1.29-0.58-2.41-1.09-3.53-1.6c0.04-0.18,0.08-0.37,0.12-0.55
		c1.17,0.16,2.34,0.33,3.8,0.53c0.55-1.6,1.1-3.21,1.7-4.96c-1.16-0.63-2.15-1.18-3.04-1.66c1.63-0.47,3.26-1.02,4.92-1.36
		c0.47-0.1,1.24,0.31,1.59,0.73c0.86,1.04,1.54,2.22,2.37,3.45c-0.59-0.07-1.52-0.19-2.71-0.33c-0.55,1.67-1.11,3.39-1.71,5.22
		c0.99,0.53,1.78,0.96,3.42,1.84c-1.85-0.13-2.76-0.19-4.02-0.28c-0.49,1.55-1,3.18-1.57,4.99c0.93,0.57,1.8,1.1,3.18,1.95
		c-1.47-0.1-2.43-0.17-3.65-0.25c-0.56,1.58-1.13,3.18-1.77,4.97c1.03,0.6,1.99,1.15,2.94,1.71c-0.04,0.14-0.08,0.28-0.12,0.42
		c-0.97-0.13-1.94-0.26-2.92-0.39c-2.47,4.12-2.4,4.87,1.2,7.03c-1.59-0.13-2.53-0.21-3.75-0.3c-1.71,5.34-3.43,10.7-5.16,16.07
		c-0.33,1.03-0.55,2.16-1.13,3.04c-0.37,0.56-1.33,0.72-2.02,1.07c-0.25-0.64-0.82-1.37-0.68-1.91c0.62-2.53,1.41-5.02,2.2-7.5
		c1.24-3.91,2.54-7.81,3.86-11.87c-1.36-0.59-2.47-1.07-3.58-1.55c0.05-0.18,0.11-0.36,0.16-0.54c1.19,0.18,2.38,0.36,3.52,0.54
		c2.41-4.64,2.41-4.64-1.65-7.16C409.39,496.47,410.58,496.61,411.95,496.77z M414.71,494.72c-0.29-0.09-0.59-0.19-0.88-0.28
		c-3.24,10.11-6.48,20.21-9.72,30.32c0.3,0.09,0.6,0.19,0.89,0.28C408.24,514.93,411.48,504.83,414.71,494.72z"/>
	<path class="st0" d="M41.8,276.75c1.27,0.22,2.54,0.48,3.82,0.65c2.88,0.38,4.62,1.96,4.69,4.87c0.07,3.05-2.66,6.09-5.52,6.27
		c-3.49,0.22-6.99-0.3-8.74-3.68c-0.77-1.49-0.92-4.2-0.05-5.43c1.11-1.56,3.54-2.19,5.4-3.22
		C41.53,276.39,41.66,276.57,41.8,276.75z"/>
	<path class="st0" d="M58.43,265.1c-1.01,1.77-1.66,4.49-3.14,5.05c-1.55,0.59-4.12-0.5-5.82-1.55c-1.68-1.04-3.24-2.75-4.07-4.53
		c-0.68-1.45-0.81-3.78-0.06-5.07c0.65-1.13,2.87-1.92,4.38-1.88C55.3,257.28,57.87,259.89,58.43,265.1z"/>
	<path class="st0" d="M360.25,282.77c0.61,0.11,1.78,0.27,2.94,0.53c3.73,0.84,5.06,2.35,4.76,5.35c-0.36,3.56-2.71,6-6.12,5.78
		c-2.09-0.13-4.35-0.61-6.14-1.63c-2.46-1.41-3.35-3.94-2.42-6.76C354.3,282.88,357.02,282.86,360.25,282.77z"/>
	<path class="st0" d="M374.38,264.98c0.31,3.01,1.03,6.05,0.8,9.02c-0.2,2.7-2.73,3.82-4.81,2.31c-2.87-2.08-5.62-4.65-7.58-7.58
		c-1.71-2.55,1.01-6,4.35-5.67c2.49,0.25,4.9,1.33,7.35,2.04C374.5,265.1,374.38,264.98,374.38,264.98z"/>
	<path class="st0" d="M369.13,26.28c4.91,0.54,8.06,2.89,9.82,7.08c1.7,4.05,0.88,7.95-2.2,10.84c-6.35,5.97-12.9,11.74-19.61,17.31
		c-4.22,3.5-10.18,2.66-13.82-1.41c-3.41-3.81-3.55-10.06,0.25-13.67c6.4-6.08,13.04-11.9,19.76-17.62
		C364.87,27.5,367.18,27.09,369.13,26.28z M353.02,39.1c-2.94,2.72-5.73,4.98-8.13,7.59c-3,3.25-2.83,8.68,0.05,11.94
		c2.98,3.38,8.24,4.35,11.82,1.79c2.96-2.12,5.58-4.72,8.59-7.31C361.2,48.39,357.28,43.94,353.02,39.1z"/>
	<path class="st0" d="M49.85,35.14c-1.36,2.35-2.27,5.16-4.15,6.97c-6.03,5.79-12.36,11.29-18.68,16.76
		c-4.03,3.48-9.97,2.97-13.87-0.95c-3.64-3.65-4.16-9.9-0.4-13.55c6.54-6.35,13.43-12.36,20.38-18.27c3.1-2.64,6.84-2.45,10.43-0.64
		C47.24,27.34,49.1,30.51,49.85,35.14z M22.51,36.83c-1.33,1.12-2.43,1.98-3.46,2.92c-1.61,1.46-3.3,2.86-4.75,4.47
		c-2.66,2.96-2.86,7.42-0.69,10.91c2.09,3.36,6.56,5.48,10.14,3.69c4.03-2.02,7.5-5.17,11.39-7.95
		C30.59,45.81,26.61,41.39,22.51,36.83z"/>
	<path class="st0" d="M262.3,302.16c3.09-2.98,5.97-6.22,9.32-8.88c3.19-2.53,7.36-1.7,9.89,1.35c2.43,2.94,2.35,7.38-0.52,10.05
		c-3.96,3.7-8.14,7.17-12.22,10.73c1.23-1.56,2.47-3.12,3.79-4.78c-2.5-2.84-4.83-5.66-7.39-8.26
		C264.66,301.86,263.28,302.21,262.3,302.16z"/>
	<path class="st0" d="M262.3,302.16c0.98,0.05,2.36-0.3,2.86,0.21c2.56,2.6,4.9,5.42,7.39,8.26c-1.32,1.67-2.55,3.22-3.79,4.78
		c0,0-0.11,0.04-0.11,0.04c-0.87,0.38-1.75,0.74-2.62,1.14c-2.47,1.14-4.8,0.99-7-0.68c-2.35-1.77-3-4.23-2.39-6.92
		c0.32-1.4,1.27-2.66,1.93-3.98C259.81,304.06,261.05,303.11,262.3,302.16z"/>
	<path class="st0" d="M258.57,305.01c-0.66,1.32-1.61,2.58-1.93,3.98c-0.61,2.69,0.05,5.15,2.39,6.92c2.2,1.66,4.53,1.81,7,0.68
		c0.86-0.4,1.75-0.76,2.62-1.14c-3.37,3.32-6.25,4.01-9.54,2.28c-2.95-1.55-4.62-4.43-3.75-7.84
		C255.81,308.12,257.46,306.63,258.57,305.01z"/>
	<path class="st0" d="M288.04,417.55c-1.96-4.06-4.24-8.01-5.77-12.23c-1.2-3.33,0.97-6.96,4.13-8.33c3.29-1.44,7.42-0.7,8.98,2.33
		c2.62,5.08,4.69,10.45,6.98,15.7c0,0,0.07-0.05,0.07-0.05c-1-1.58-2-3.16-3.07-4.86c-3.29,1.5-6.5,2.79-9.5,4.44
		c-0.92,0.5-1.28,2.02-1.89,3.07L288.04,417.55z"/>
	<path class="st0" d="M302.36,415.01c3.05,4.17,2.28,8.84-1.87,11.36c-3.64,2.22-8.22,0.78-10.41-3.43
		c-0.88-1.7-1.38-3.59-2.05-5.39c0,0-0.07,0.07-0.07,0.07c0.88,1.58,1.73,3.17,2.64,4.73c1.75,3,5.01,4.27,8.06,3.18
		c3.26-1.16,5.04-4.27,4.43-7.75c-0.17-0.95-0.44-1.88-0.66-2.81C302.43,414.96,302.36,415.01,302.36,415.01z"/>
	<path class="st0" d="M152.39,403.31c3.87,1.19,4.75,4.92,7.09,7.4c-0.36,0.3-0.72,0.6-1.08,0.9c-1.97-2.8-3.94-5.59-5.91-8.39
		C152.48,403.22,152.39,403.31,152.39,403.31z"/>
	<path class="st0" d="M166.18,392.1c2.45,2.44,4.9,4.87,7.35,7.31c-0.48,0.4-0.95,0.79-1.43,1.19c-1.94-2.86-3.88-5.73-5.82-8.59
		C166.28,392.01,166.18,392.1,166.18,392.1z"/>
	<path class="st0" d="M158.52,398.31c1.08,0.33,2.49,0.34,3.18,1.04c1.75,1.78,3.18,3.88,4.75,5.85c-0.25,0.22-0.51,0.44-0.76,0.65
		c-2.38-2.52-4.76-5.03-7.15-7.55C158.53,398.32,158.52,398.31,158.52,398.31z"/>
	<path class="st0" d="M493.65,400.83c2.03,2.54,4.07,5.09,6.1,7.63c-0.35,0.28-0.69,0.56-1.04,0.83c-2.04-2.52-4.08-5.05-6.12-7.57
		C492.94,401.43,493.29,401.13,493.65,400.83z"/>
	<path class="st0" d="M486.76,406.4c2.03,2.53,4.06,5.07,6.08,7.6c-0.34,0.27-0.68,0.54-1.02,0.81c-2.05-2.52-4.1-5.04-6.14-7.56
		C486.04,406.97,486.4,406.69,486.76,406.4z"/>
	<path class="st0" d="M484.99,420.39c-2.03-2.52-4.06-5.04-6.09-7.56c0.32-0.26,0.64-0.53,0.95-0.79c2.07,2.48,4.13,4.96,6.2,7.44
		C485.7,419.78,485.34,420.09,484.99,420.39z"/>
	<path class="st0" d="M521.05,101.39c3.34,1.81,4.78,5.12,7.1,7.73c-0.44,0.33-0.88,0.67-1.32,1c-1.9-2.94-3.79-5.88-5.69-8.82
		C521.14,101.29,521.05,101.39,521.05,101.39z"/>
	<path class="st0" d="M527.12,96.6c0.86,0.14,2.05-0.04,2.51,0.46c1.87,2.03,3.52,4.26,5.26,6.42c-0.26,0.24-0.52,0.47-0.78,0.71
		c-2.3-2.55-4.6-5.11-6.92-7.65C527.17,96.55,527.12,96.6,527.12,96.6z"/>
	<path class="st0" d="M200.92,93.56c2.46,2.42,4.92,4.84,7.39,7.27c-0.42,0.37-0.83,0.75-1.25,1.12c-1.95-2.88-5-4.81-6.06-8.47
		C201.01,93.47,200.92,93.56,200.92,93.56z"/>
	<path class="st0" d="M195.21,99.21c2.03,2.5,4.07,5,6.1,7.5c-0.34,0.29-0.68,0.57-1.03,0.86c-2.04-2.48-4.07-4.96-6.11-7.45
		C194.52,99.82,194.87,99.52,195.21,99.21z"/>
	<path class="st0" d="M88.28,485.98c-3.24,10.09-6.48,20.17-9.72,30.26c-0.3-0.1-0.59-0.19-0.89-0.29
		c3.24-10.09,6.47-20.17,9.71-30.26C87.68,485.79,87.98,485.88,88.28,485.98z"/>
	<path class="st0" d="M131.02,182.55c-3.15,10.23-6.3,20.46-9.46,30.7c-0.3-0.09-0.6-0.18-0.9-0.27c3.15-10.23,6.3-20.46,9.46-30.7
		C130.42,182.37,130.72,182.46,131.02,182.55z"/>
	<path class="st0" d="M439.23,219.86c3.26-10.13,6.52-20.26,9.78-30.38c0.3,0.1,0.6,0.19,0.9,0.29
		c-3.25,10.13-6.51,20.26-9.76,30.39C439.84,220.06,439.53,219.96,439.23,219.86z"/>
	<path class="st0" d="M414.71,494.72c-3.23,10.11-6.47,20.21-9.7,30.32c-0.3-0.09-0.6-0.19-0.89-0.28
		c3.24-10.11,6.48-20.21,9.72-30.32C414.12,494.54,414.42,494.63,414.71,494.72z"/>
	<path class="st0" d="M353.02,39.1c4.26,4.84,8.18,9.29,12.32,14c-3,2.59-5.62,5.19-8.59,7.31c-3.59,2.56-8.84,1.59-11.82-1.79
		c-2.88-3.26-3.05-8.69-0.05-11.94C347.29,44.08,350.07,41.82,353.02,39.1z"/>
	<path class="st0" d="M22.51,36.83c4.11,4.56,8.08,8.98,12.63,14.04c-3.89,2.79-7.36,5.93-11.39,7.95
		c-3.58,1.8-8.04-0.32-10.14-3.69c-2.18-3.49-1.97-7.96,0.69-10.91c1.45-1.61,3.13-3.02,4.75-4.47
		C20.08,38.82,21.17,37.95,22.51,36.83z"/>
	<path class="st0" d="M302.43,414.96c0.22,0.94,0.49,1.87,0.66,2.81c0.62,3.48-1.17,6.59-4.43,7.75c-3.05,1.09-6.31-0.19-8.06-3.18
		c-0.91-1.56-1.76-3.15-2.64-4.73c0.62-1.05,0.98-2.57,1.89-3.07c3-1.65,6.21-2.94,9.5-4.44
		C300.43,411.8,301.43,413.38,302.43,414.96z"/>
</g>
</svg>
